  0
SECTION
  2
HEADER
  9
$ACADVER
  1
AC1021
  9
$ACADMAINTVER
 70
25
  9
$DWGCODEPAGE
  3
ANSI_1252
  9
$LASTSAVEDBY
  1
ezdxf
  9
$INSBASE
 10
0.0
 20
0.0
 30
0.0
  9
$EXTMIN
 10
1e+20
 20
1e+20
 30
1e+20
  9
$EXTMAX
 10
-1e+20
 20
-1e+20
 30
-1e+20
  9
$LIMMIN
 10
0.0
 20
0.0
  9
$LIMMAX
 10
420.0
 20
297.0
  9
$ORTHOMODE
 70
0
  9
$REGENMODE
 70
1
  9
$FILLMODE
 70
1
  9
$QTEXTMODE
 70
0
  9
$MIRRTEXT
 70
1
  9
$LTSCALE
 40
1.0
  9
$ATTMODE
 70
1
  9
$TEXTSIZE
 40
2.5
  9
$TRACEWID
 40
1.0
  9
$TEXTSTYLE
  7
OpenSans
  9
$CLAYER
  8
0
  9
$CELTYPE
  6
ByLayer
  9
$CECOLOR
 62
256
  9
$CELTSCALE
 40
1.0
  9
$DISPSILH
 70
0
  9
$DIMSCALE
 40
1.0
  9
$DIMASZ
 40
0.175
  9
$DIMEXO
 40
0.125
  9
$DIMDLI
 40
3.75
  9
$DIMRND
 40
0.0
  9
$DIMDLE
 40
0.0
  9
$DIMEXE
 40
0.375
  9
$DIMTP
 40
0.0
  9
$DIMTM
 40
0.0
  9
$DIMTXT
 40
0.25
  9
$DIMCEN
 40
2.5
  9
$DIMTSZ
 40
0.0
  9
$DIMTOL
 70
0
  9
$DIMLIM
 70
0
  9
$DIMTIH
 70
0
  9
$DIMTOH
 70
0
  9
$DIMSE1
 70
0
  9
$DIMSE2
 70
0
  9
$DIMTAD
 70
1
  9
$DIMZIN
 70
12
  9
$DIMBLK
  1
ARCHTICK
  9
$DIMASO
 70
1
  9
$DIMSHO
 70
1
  9
$DIMPOST
  1

  9
$DIMAPOST
  1

  9
$DIMALT
 70
0
  9
$DIMALTD
 70
3
  9
$DIMALTF
 40
0.03937007874
  9
$DIMLFAC
 40
100.0
  9
$DIMTOFL
 70
1
  9
$DIMTVP
 40
0.0
  9
$DIMTIX
 70
0
  9
$DIMSOXD
 70
0
  9
$DIMSAH
 70
0
  9
$DIMBLK1
  1

  9
$DIMBLK2
  1

  9
$DIMSTYLE
  2
EZDXF
  9
$DIMCLRD
 70
0
  9
$DIMCLRE
 70
0
  9
$DIMCLRT
 70
0
  9
$DIMTFAC
 40
0.5
  9
$DIMGAP
 40
0.1
  9
$DIMJUST
 70
0
  9
$DIMSD1
 70
0
  9
$DIMSD2
 70
0
  9
$DIMTOLJ
 70
0
  9
$DIMTZIN
 70
8
  9
$DIMALTZ
 70
0
  9
$DIMALTTZ
 70
0
  9
$DIMUPT
 70
1
  9
$DIMDEC
 70
2
  9
$DIMTDEC
 70
2
  9
$DIMALTU
 70
2
  9
$DIMALTTD
 70
3
  9
$DIMTXSTY
  7
OpenSansCondensed-Light
  9
$DIMAUNIT
 70
0
  9
$DIMADEC
 70
2
  9
$DIMALTRND
 40
0.0
  9
$DIMAZIN
 70
3
  9
$DIMDSEP
 70
46
  9
$DIMATFIT
 70
3
  9
$DIMFRAC
 70
0
  9
$DIMLDRBLK
  1

  9
$DIMLUNIT
 70
2
  9
$DIMLWD
 70
-2
  9
$DIMLWE
 70
-2
  9
$DIMTMOVE
 70
2
  9
$DIMFXL
 40
1.0
  9
$DIMFXLON
 70
0
  9
$DIMJOGANG
 40
0.785398163397
  9
$DIMTFILL
 70
0
  9
$DIMTFILLCLR
 70
0
  9
$DIMARCSYM
 70
0
  9
$DIMLTYPE
  6

  9
$DIMLTEX1
  6

  9
$DIMLTEX2
  6

  9
$LUNITS
 70
2
  9
$LUPREC
 70
4
  9
$SKETCHINC
 40
1.0
  9
$FILLETRAD
 40
10.0
  9
$AUNITS
 70
0
  9
$AUPREC
 70
2
  9
$MENU
  1
.
  9
$ELEVATION
 40
0.0
  9
$PELEVATION
 40
0.0
  9
$THICKNESS
 40
0.0
  9
$LIMCHECK
 70
0
  9
$CHAMFERA
 40
0.0
  9
$CHAMFERB
 40
0.0
  9
$CHAMFERC
 40
0.0
  9
$CHAMFERD
 40
0.0
  9
$SKPOLY
 70
0
  9
$TDCREATE
 40
2461289.6833796296
  9
$TDUCREATE
 40
2458532.153996898
  9
$TDUPDATE
 40
2461289.6833796296
  9
$TDUUPDATE
 40
2458532.1544311
  9
$TDINDWG
 40
0.0
  9
$TDUSRTIMER
 40
0.0
  9
$USRTIMER
 70
1
  9
$ANGBASE
 50
0.0
  9
$ANGDIR
 70
0
  9
$PDMODE
 70
0
  9
$PDSIZE
 40
0.0
  9
$PLINEWID
 40
0.0
  9
$SPLFRAME
 70
0
  9
$SPLINETYPE
 70
6
  9
$SPLINESEGS
 70
8
  9
$HANDSEED
  5
1E8
  9
$SURFTAB1
 70
6
  9
$SURFTAB2
 70
6
  9
$SURFTYPE
 70
6
  9
$SURFU
 70
6
  9
$SURFV
 70
6
  9
$UCSBASE
  2

  9
$UCSNAME
  2

  9
$UCSORG
 10
0.0
 20
0.0
 30
0.0
  9
$UCSXDIR
 10
1.0
 20
0.0
 30
0.0
  9
$UCSYDIR
 10
0.0
 20
1.0
 30
0.0
  9
$UCSORTHOREF
  2

  9
$UCSORTHOVIEW
 70
0
  9
$UCSORGTOP
 10
0.0
 20
0.0
 30
0.0
  9
$UCSORGBOTTOM
 10
0.0
 20
0.0
 30
0.0
  9
$UCSORGLEFT
 10
0.0
 20
0.0
 30
0.0
  9
$UCSORGRIGHT
 10
0.0
 20
0.0
 30
0.0
  9
$UCSORGFRONT
 10
0.0
 20
0.0
 30
0.0
  9
$UCSORGBACK
 10
0.0
 20
0.0
 30
0.0
  9
$PUCSBASE
  2

  9
$PUCSNAME
  2

  9
$PUCSORG
 10
0.0
 20
0.0
 30
0.0
  9
$PUCSXDIR
 10
1.0
 20
0.0
 30
0.0
  9
$PUCSYDIR
 10
0.0
 20
1.0
 30
0.0
  9
$PUCSORTHOREF
  2

  9
$PUCSORTHOVIEW
 70
0
  9
$PUCSORGTOP
 10
0.0
 20
0.0
 30
0.0
  9
$PUCSORGBOTTOM
 10
0.0
 20
0.0
 30
0.0
  9
$PUCSORGLEFT
 10
0.0
 20
0.0
 30
0.0
  9
$PUCSORGRIGHT
 10
0.0
 20
0.0
 30
0.0
  9
$PUCSORGFRONT
 10
0.0
 20
0.0
 30
0.0
  9
$PUCSORGBACK
 10
0.0
 20
0.0
 30
0.0
  9
$USERI1
 70
0
  9
$USERI2
 70
0
  9
$USERI3
 70
0
  9
$USERI4
 70
0
  9
$USERI5
 70
0
  9
$USERR1
 40
0.0
  9
$USERR2
 40
0.0
  9
$USERR3
 40
0.0
  9
$USERR4
 40
0.0
  9
$USERR5
 40
0.0
  9
$WORLDVIEW
 70
1
  9
$SHADEDGE
 70
3
  9
$SHADEDIF
 70
70
  9
$TILEMODE
 70
1
  9
$MAXACTVP
 70
64
  9
$PINSBASE
 10
0.0
 20
0.0
 30
0.0
  9
$PLIMCHECK
 70
0
  9
$PEXTMIN
 10
1e+20
 20
1e+20
 30
1e+20
  9
$PEXTMAX
 10
-1e+20
 20
-1e+20
 30
-1e+20
  9
$PLIMMIN
 10
0.0
 20
0.0
  9
$PLIMMAX
 10
420.0
 20
297.0
  9
$UNITMODE
 70
0
  9
$VISRETAIN
 70
1
  9
$PLINEGEN
 70
0
  9
$PSLTSCALE
 70
1
  9
$TREEDEPTH
 70
3020
  9
$CMLSTYLE
  2
Standard
  9
$CMLJUST
 70
0
  9
$CMLSCALE
 40
20.0
  9
$PROXYGRAPHICS
 70
1
  9
$MEASUREMENT
 70
1
  9
$CELWEIGHT
370
-1
  9
$ENDCAPS
280
0
  9
$JOINSTYLE
280
0
  9
$LWDISPLAY
290
1
  9
$INSUNITS
 70
4
  9
$HYPERLINKBASE
  1

  9
$STYLESHEET
  1

  9
$XEDIT
290
1
  9
$CEPSNTYPE
380
0
  9
$PSTYLEMODE
290
1
  9
$FINGERPRINTGUID
  2
{215E3858-88E9-441E-80A4-4CAB225A9491}
  9
$VERSIONGUID
  2
{06E0A58B-4B72-4EC0-BD36-977BDE196791}
  9
$EXTNAMES
290
1
  9
$PSVPSCALE
 40
0.0
  9
$OLESTARTUP
290
0
  9
$SORTENTS
280
127
  9
$INDEXCTL
280
0
  9
$HIDETEXT
280
1
  9
$XCLIPFRAME
290
1
  9
$HALOGAP
280
0
  9
$OBSCOLOR
 70
257
  9
$OBSLTYPE
280
0
  9
$INTERSECTIONDISPLAY
280
0
  9
$INTERSECTIONCOLOR
 70
257
  9
$DIMASSOC
280
2
  9
$PROJECTNAME
  1

  9
$CAMERADISPLAY
290
0
  9
$LENSLENGTH
 40
50.0
  9
$CAMERAHEIGHT
 40
0.0
  9
$STEPSPERSEC
 40
24.0
  9
$STEPSIZE
 40
100.0
  9
$3DDWFPREC
 40
2.0
  9
$PSOLWIDTH
 40
0.005
  9
$PSOLHEIGHT
 40
0.08
  9
$LOFTANG1
 40
1.570796326795
  9
$LOFTANG2
 40
1.570796326795
  9
$LOFTMAG1
 40
0.0
  9
$LOFTMAG2
 40
0.0
  9
$LOFTPARAM
 70
7
  9
$LOFTNORMALS
280
1
  9
$LATITUDE
 40
37.795
  9
$LONGITUDE
 40
-122.394
  9
$NORTHDIRECTION
 40
0.0
  9
$TIMEZONE
 70
-8000
  9
$LIGHTGLYPHDISPLAY
280
1
  9
$TILEMODELIGHTSYNCH
280
1
  9
$CMATERIAL
347
20
  9
$SOLIDHIST
280
0
  9
$SHOWHIST
280
1
  9
$DWFFRAME
280
2
  9
$DGNFRAME
280
2
  9
$REALWORLDSCALE
290
1
  9
$INTERFERECOLOR
 62
256
  9
$CSHADOW
280
0
  9
$SHADOWPLANELOCATION
 40
0.0
  0
ENDSEC
  0
SECTION
  2
CLASSES
  0
CLASS
  1
ACDBDICTIONARYWDFLT
  2
AcDbDictionaryWithDefault
  3
ObjectDBX Classes
 90
0
 91
0
280
0
281
0
  0
CLASS
  1
SUN
  2
AcDbSun
  3
SCENEOE
 90
1153
 91
0
280
0
281
0
  0
CLASS
  1
VISUALSTYLE
  2
AcDbVisualStyle
  3
ObjectDBX Classes
 90
4095
 91
0
280
0
281
0
  0
CLASS
  1
MATERIAL
  2
AcDbMaterial
  3
ObjectDBX Classes
 90
1153
 91
0
280
0
281
0
  0
CLASS
  1
SCALE
  2
AcDbScale
  3
ObjectDBX Classes
 90
1153
 91
0
280
0
281
0
  0
CLASS
  1
TABLESTYLE
  2
AcDbTableStyle
  3
ObjectDBX Classes
 90
4095
 91
0
280
0
281
0
  0
CLASS
  1
MLEADERSTYLE
  2
AcDbMLeaderStyle
  3
ACDB_MLEADERSTYLE_CLASS
 90
4095
 91
0
280
0
281
0
  0
CLASS
  1
DICTIONARYVAR
  2
AcDbDictionaryVar
  3
ObjectDBX Classes
 90
0
 91
0
280
0
281
0
  0
CLASS
  1
CELLSTYLEMAP
  2
AcDbCellStyleMap
  3
ObjectDBX Classes
 90
1152
 91
0
280
0
281
0
  0
CLASS
  1
MENTALRAYRENDERSETTINGS
  2
AcDbMentalRayRenderSettings
  3
SCENEOE
 90
1024
 91
0
280
0
281
0
  0
CLASS
  1
ACDBDETAILVIEWSTYLE
  2
AcDbDetailViewStyle
  3
ObjectDBX Classes
 90
1025
 91
0
280
0
281
0
  0
CLASS
  1
ACDBSECTIONVIEWSTYLE
  2
AcDbSectionViewStyle
  3
ObjectDBX Classes
 90
1025
 91
0
280
0
281
0
  0
CLASS
  1
RASTERVARIABLES
  2
AcDbRasterVariables
  3
ISM
 90
0
 91
0
280
0
281
0
  0
CLASS
  1
ACDBPLACEHOLDER
  2
AcDbPlaceHolder
  3
ObjectDBX Classes
 90
0
 91
0
280
0
281
0
  0
CLASS
  1
LAYOUT
  2
AcDbLayout
  3
ObjectDBX Classes
 90
0
 91
0
280
0
281
0
  0
ENDSEC
  0
SECTION
  2
TABLES
  0
TABLE
  2
VPORT
  5
8
330
0
100
AcDbSymbolTable
 70
1
  0
VPORT
  5
23
330
8
100
AcDbSymbolTableRecord
100
AcDbViewportTableRecord
  2
*Active
 70
0
 10
0.0
 20
0.0
 11
1.0
 21
1.0
 12
0.0
 22
0.0
 13
0.0
 23
0.0
 14
0.5
 24
0.5
 15
0.5
 25
0.5
 16
0.0
 26
0.0
 36
1.0
 17
0.0
 27
0.0
 37
0.0
 40
1000.0
 41
1.34
 42
50.0
 43
0.0
 44
0.0
 50
0.0
 51
0.0
 71
0
 72
1000
 73
1
 74
3
 75
0
 76
0
 77
0
 78
0
281
0
 65
0
146
0.0
  0
ENDTAB
  0
TABLE
  2
LTYPE
  5
2
330
0
100
AcDbSymbolTable
 70
21
  0
LTYPE
  5
24
330
2
100
AcDbSymbolTableRecord
100
AcDbLinetypeTableRecord
  2
ByBlock
 70
0
  3

 72
65
 73
0
 40
0.0
  0
LTYPE
  5
25
330
2
100
AcDbSymbolTableRecord
100
AcDbLinetypeTableRecord
  2
ByLayer
 70
0
  3

 72
65
 73
0
 40
0.0
  0
LTYPE
  5
26
330
2
100
AcDbSymbolTableRecord
100
AcDbLinetypeTableRecord
  2
Continuous
 70
0
  3

 72
65
 73
0
 40
0.0
  0
LTYPE
  5
2F
330
2
100
AcDbSymbolTableRecord
100
AcDbLinetypeTableRecord
  2
CENTER
 70
0
  3
Center ____ _ ____ _ ____ _ ____ _ ____ _ ____
 72
65
 73
4
 40
5.08
 49
3.175
 74
0
 49
-0.635
 74
0
 49
0.635
 74
0
 49
-0.635
 74
0
  0
LTYPE
  5
30
330
2
100
AcDbSymbolTableRecord
100
AcDbLinetypeTableRecord
  2
CENTERX2
 70
0
  3
Center (2x) ________  __  ________  __  ________
 72
65
 73
4
 40
8.89
 49
6.35
 74
0
 49
-0.635
 74
0
 49
1.27
 74
0
 49
-0.635
 74
0
  0
LTYPE
  5
31
330
2
100
AcDbSymbolTableRecord
100
AcDbLinetypeTableRecord
  2
CENTER2
 70
0
  3
Center (.5x) ____ _ ____ _ ____ _ ____ _ ____
 72
65
 73
4
 40
2.54
 49
1.587
 74
0
 49
-0.318
 74
0
 49
0.318
 74
0
 49
-0.318
 74
0
  0
LTYPE
  5
32
330
2
100
AcDbSymbolTableRecord
100
AcDbLinetypeTableRecord
  2
DASHED
 70
0
  3
Dashed __ __ __ __ __ __ __ __ __ __ __ __ __ _
 72
65
 73
2
 40
1.524
 49
1.27
 74
0
 49
-0.254
 74
0
  0
LTYPE
  5
33
330
2
100
AcDbSymbolTableRecord
100
AcDbLinetypeTableRecord
  2
DASHEDX2
 70
0
  3
Dashed (2x) ____  ____  ____  ____  ____  ____
 72
65
 73
2
 40
3.048
 49
2.54
 74
0
 49
-0.508
 74
0
  0
LTYPE
  5
34
330
2
100
AcDbSymbolTableRecord
100
AcDbLinetypeTableRecord
  2
DASHED2
 70
0
  3
Dashed (.5x) _ _ _ _ _ _ _ _ _ _ _ _ _ _
 72
65
 73
2
 40
0.762
 49
0.635
 74
0
 49
-0.127
 74
0
  0
LTYPE
  5
35
330
2
100
AcDbSymbolTableRecord
100
AcDbLinetypeTableRecord
  2
PHANTOM
 70
0
  3
Phantom ______  __  __  ______  __  __  ______
 72
65
 73
6
 40
6.35
 49
3.175
 74
0
 49
-0.635
 74
0
 49
0.635
 74
0
 49
-0.635
 74
0
 49
0.635
 74
0
 49
-0.635
 74
0
  0
LTYPE
  5
36
330
2
100
AcDbSymbolTableRecord
100
AcDbLinetypeTableRecord
  2
PHANTOMX2
 70
0
  3
Phantom (2x)____________    ____    ____    ____________
 72
65
 73
6
 40
10.795
 49
6.35
 74
0
 49
-0.635
 74
0
 49
1.27
 74
0
 49
-0.635
 74
0
 49
1.27
 74
0
 49
-0.635
 74
0
  0
LTYPE
  5
37
330
2
100
AcDbSymbolTableRecord
100
AcDbLinetypeTableRecord
  2
PHANTOM2
 70
0
  3
Phantom (.5x) ___ _ _ ___ _ _ ___ _ _ ___ _ _ ___
 72
65
 73
6
 40
3.175
 49
1.587
 74
0
 49
-0.318
 74
0
 49
0.318
 74
0
 49
-0.318
 74
0
 49
0.318
 74
0
 49
-0.318
 74
0
  0
LTYPE
  5
38
330
2
100
AcDbSymbolTableRecord
100
AcDbLinetypeTableRecord
  2
DASHDOT
 70
0
  3
Dash dot __ . __ . __ . __ . __ . __ . __ . __
 72
65
 73
4
 40
3.556
 49
2.54
 74
0
 49
-0.508
 74
0
 49
0.0
 74
0
 49
-0.508
 74
0
  0
LTYPE
  5
39
330
2
100
AcDbSymbolTableRecord
100
AcDbLinetypeTableRecord
  2
DASHDOTX2
 70
0
  3
Dash dot (2x) ____  .  ____  .  ____  .  ____
 72
65
 73
4
 40
6.096
 49
5.08
 74
0
 49
-0.508
 74
0
 49
0.0
 74
0
 49
-0.508
 74
0
  0
LTYPE
  5
3A
330
2
100
AcDbSymbolTableRecord
100
AcDbLinetypeTableRecord
  2
DASHDOT2
 70
0
  3
Dash dot (.5x) _ . _ . _ . _ . _ . _ . _ . _
 72
65
 73
4
 40
1.778
 49
1.27
 74
0
 49
-0.254
 74
0
 49
0.0
 74
0
 49
-0.254
 74
0
  0
LTYPE
  5
3B
330
2
100
AcDbSymbolTableRecord
100
AcDbLinetypeTableRecord
  2
DOT
 70
0
  3
Dot .  .  .  .  .  .  .  .  .  .  .  .  .  .  .  .
 72
65
 73
2
 40
0.508
 49
0.0
 74
0
 49
-0.508
 74
0
  0
LTYPE
  5
3C
330
2
100
AcDbSymbolTableRecord
100
AcDbLinetypeTableRecord
  2
DOTX2
 70
0
  3
Dot (2x) .    .    .    .    .    .    .    . 
 72
65
 73
2
 40
1.016
 49
0.0
 74
0
 49
-1.016
 74
0
  0
LTYPE
  5
3D
330
2
100
AcDbSymbolTableRecord
100
AcDbLinetypeTableRecord
  2
DOT2
 70
0
  3
Dot (.5) . . . . . . . . . . . . . . . . . . . 
 72
65
 73
2
 40
0.254
 49
0.0
 74
0
 49
-0.254
 74
0
  0
LTYPE
  5
3E
330
2
100
AcDbSymbolTableRecord
100
AcDbLinetypeTableRecord
  2
DIVIDE
 70
0
  3
Divide __ . . __ . . __ . . __ . . __ . . __
 72
65
 73
6
 40
4.064
 49
2.54
 74
0
 49
-0.508
 74
0
 49
0.0
 74
0
 49
-0.508
 74
0
 49
0.0
 74
0
 49
-0.508
 74
0
  0
LTYPE
  5
3F
330
2
100
AcDbSymbolTableRecord
100
AcDbLinetypeTableRecord
  2
DIVIDEX2
 70
0
  3
Divide (2x) ____  . .  ____  . .  ____  . .  ____
 72
65
 73
6
 40
6.604
 49
5.08
 74
0
 49
-0.508
 74
0
 49
0.0
 74
0
 49
-0.508
 74
0
 49
0.0
 74
0
 49
-0.508
 74
0
  0
LTYPE
  5
40
330
2
100
AcDbSymbolTableRecord
100
AcDbLinetypeTableRecord
  2
DIVIDE2
 70
0
  3
Divide(.5x) _ . _ . _ . _ . _ . _ . _ . _
 72
65
 73
6
 40
2.032
 49
1.27
 74
0
 49
-0.254
 74
0
 49
0.0
 74
0
 49
-0.254
 74
0
 49
0.0
 74
0
 49
-0.254
 74
0
  0
ENDTAB
  0
TABLE
  2
LAYER
  5
1
330
0
100
AcDbSymbolTable
 70
10
  0
LAYER
  5
27
330
1
100
AcDbSymbolTableRecord
100
AcDbLayerTableRecord
  2
0
 70
0
 62
7
  6
Continuous
370
-3
390
13
347
21
  0
LAYER
  5
28
330
1
100
AcDbSymbolTableRecord
100
AcDbLayerTableRecord
  2
Defpoints
 70
0
 62
7
  6
Continuous
290
0
370
-3
390
13
347
21
  0
LAYER
  5
8C
330
1
100
AcDbSymbolTableRecord
100
AcDbLayerTableRecord
  2
KHUNG
 70
0
 62
7
  6
Continuous
370
50
390
13
347
21
  0
LAYER
  5
8D
330
1
100
AcDbSymbolTableRecord
100
AcDbLayerTableRecord
  2
DAY_CHINH
 70
0
 62
7
  6
Continuous
370
35
390
13
347
21
  0
LAYER
  5
8E
330
1
100
AcDbSymbolTableRecord
100
AcDbLayerTableRecord
  2
PLC
 70
0
 62
2
  6
Continuous
370
25
390
13
347
21
  0
LAYER
  5
8F
330
1
100
AcDbSymbolTableRecord
100
AcDbLayerTableRecord
  2
THIET_BI
 70
0
 62
3
  6
Continuous
370
25
390
13
347
21
  0
LAYER
  5
90
330
1
100
AcDbSymbolTableRecord
100
AcDbLayerTableRecord
  2
AN_TOAN
 70
0
 62
1
  6
Continuous
370
25
390
13
347
21
  0
LAYER
  5
91
330
1
100
AcDbSymbolTableRecord
100
AcDbLayerTableRecord
  2
ANALOG
 70
0
 62
4
  6
Continuous
370
25
390
13
347
21
  0
LAYER
  5
92
330
1
100
AcDbSymbolTableRecord
100
AcDbLayerTableRecord
  2
TUCAP
 70
0
 62
6
  6
Continuous
370
35
390
13
347
21
  0
LAYER
  5
93
330
1
100
AcDbSymbolTableRecord
100
AcDbLayerTableRecord
  2
GHI_CHU
 70
0
 62
7
  6
Continuous
370
18
390
13
347
21
  0
ENDTAB
  0
TABLE
  2
STYLE
  5
5
330
0
100
AcDbSymbolTable
 70
28
  0
STYLE
  5
29
330
5
100
AcDbSymbolTableRecord
100
AcDbTextStyleTableRecord
  2
Standard
 70
0
 40
0.0
 41
1.0
 50
0.0
 71
0
 42
2.5
  3
txt
  4

  0
STYLE
  5
41
330
5
100
AcDbSymbolTableRecord
100
AcDbTextStyleTableRecord
  2
OpenSans-Light
 70
0
 40
0.0
 41
1.0
 50
0.0
 71
0
 42
2.5
  3
OpenSans-Light.ttf
  4

  0
STYLE
  5
42
330
5
100
AcDbSymbolTableRecord
100
AcDbTextStyleTableRecord
  2
OpenSans-Light-Italic
 70
0
 40
0.0
 41
1.0
 50
0.0
 71
0
 42
2.5
  3
OpenSans-LightItalic.ttf
  4

  0
STYLE
  5
43
330
5
100
AcDbSymbolTableRecord
100
AcDbTextStyleTableRecord
  2
OpenSans
 70
0
 40
0.0
 41
1.0
 50
0.0
 71
0
 42
2.5
  3
OpenSans-Regular.ttf
  4

  0
STYLE
  5
44
330
5
100
AcDbSymbolTableRecord
100
AcDbTextStyleTableRecord
  2
OpenSans-Italic
 70
0
 40
0.0
 41
1.0
 50
0.0
 71
0
 42
2.5
  3
OpenSans-Italic.ttf
  4

  0
STYLE
  5
45
330
5
100
AcDbSymbolTableRecord
100
AcDbTextStyleTableRecord
  2
OpenSans-SemiBold
 70
0
 40
0.0
 41
1.0
 50
0.0
 71
0
 42
2.5
  3
OpenSans-SemiBold.ttf
  4

  0
STYLE
  5
46
330
5
100
AcDbSymbolTableRecord
100
AcDbTextStyleTableRecord
  2
OpenSans-SemiBoldItalic
 70
0
 40
0.0
 41
1.0
 50
0.0
 71
0
 42
2.5
  3
OpenSans-SemiBoldItalic.ttf
  4

  0
STYLE
  5
47
330
5
100
AcDbSymbolTableRecord
100
AcDbTextStyleTableRecord
  2
OpenSans-Bold
 70
0
 40
0.0
 41
1.0
 50
0.0
 71
0
 42
2.5
  3
OpenSans-Bold.ttf
  4

  0
STYLE
  5
48
330
5
100
AcDbSymbolTableRecord
100
AcDbTextStyleTableRecord
  2
OpenSans-BoldItalic
 70
0
 40
0.0
 41
1.0
 50
0.0
 71
0
 42
2.5
  3
OpenSans-BoldItalic.ttf
  4

  0
STYLE
  5
49
330
5
100
AcDbSymbolTableRecord
100
AcDbTextStyleTableRecord
  2
OpenSans-ExtraBold
 70
0
 40
0.0
 41
1.0
 50
0.0
 71
0
 42
2.5
  3
OpenSans-ExtraBold.ttf
  4

  0
STYLE
  5
4A
330
5
100
AcDbSymbolTableRecord
100
AcDbTextStyleTableRecord
  2
OpenSans-ExtraBoldItalic
 70
0
 40
0.0
 41
1.0
 50
0.0
 71
0
 42
2.5
  3
OpenSans-ExtraBoldItalic.ttf
  4

  0
STYLE
  5
4B
330
5
100
AcDbSymbolTableRecord
100
AcDbTextStyleTableRecord
  2
OpenSansCondensed-Bold
 70
0
 40
0.0
 41
1.0
 50
0.0
 71
0
 42
2.5
  3
OpenSansCondensed-Bold.ttf
  4

  0
STYLE
  5
4C
330
5
100
AcDbSymbolTableRecord
100
AcDbTextStyleTableRecord
  2
OpenSansCondensed-Light
 70
0
 40
0.0
 41
1.0
 50
0.0
 71
0
 42
2.5
  3
OpenSansCondensed-Light.ttf
  4

  0
STYLE
  5
4D
330
5
100
AcDbSymbolTableRecord
100
AcDbTextStyleTableRecord
  2
OpenSansCondensed-Italic
 70
0
 40
0.0
 41
1.0
 50
0.0
 71
0
 42
2.5
  3
OpenSansCondensed-LightItalic.ttf
  4

  0
STYLE
  5
4E
330
5
100
AcDbSymbolTableRecord
100
AcDbTextStyleTableRecord
  2
LiberationSans
 70
0
 40
0.0
 41
1.0
 50
0.0
 71
0
 42
2.5
  3
LiberationSans-Regular.ttf
  4

  0
STYLE
  5
4F
330
5
100
AcDbSymbolTableRecord
100
AcDbTextStyleTableRecord
  2
LiberationSans-Bold
 70
0
 40
0.0
 41
1.0
 50
0.0
 71
0
 42
2.5
  3
LiberationSans-Bold.ttf
  4

  0
STYLE
  5
50
330
5
100
AcDbSymbolTableRecord
100
AcDbTextStyleTableRecord
  2
LiberationSans-BoldItalic
 70
0
 40
0.0
 41
1.0
 50
0.0
 71
0
 42
2.5
  3
LiberationSans-BoldItalic.ttf
  4

  0
STYLE
  5
51
330
5
100
AcDbSymbolTableRecord
100
AcDbTextStyleTableRecord
  2
LiberationSans-Italic
 70
0
 40
0.0
 41
1.0
 50
0.0
 71
0
 42
2.5
  3
LiberationSans-Italic.ttf
  4

  0
STYLE
  5
52
330
5
100
AcDbSymbolTableRecord
100
AcDbTextStyleTableRecord
  2
LiberationSerif
 70
0
 40
0.0
 41
1.0
 50
0.0
 71
0
 42
2.5
  3
LiberationSerif-Regular.ttf
  4

  0
STYLE
  5
53
330
5
100
AcDbSymbolTableRecord
100
AcDbTextStyleTableRecord
  2
LiberationSerif-Bold
 70
0
 40
0.0
 41
1.0
 50
0.0
 71
0
 42
2.5
  3
LiberationSerif-Bold.ttf
  4

  0
STYLE
  5
54
330
5
100
AcDbSymbolTableRecord
100
AcDbTextStyleTableRecord
  2
LiberationSerif-BoldItalic
 70
0
 40
0.0
 41
1.0
 50
0.0
 71
0
 42
2.5
  3
LiberationSerif-BoldItalic.ttf
  4

  0
STYLE
  5
55
330
5
100
AcDbSymbolTableRecord
100
AcDbTextStyleTableRecord
  2
LiberationSerif-Italic
 70
0
 40
0.0
 41
1.0
 50
0.0
 71
0
 42
2.5
  3
LiberationSerif-Italic.ttf
  4

  0
STYLE
  5
56
330
5
100
AcDbSymbolTableRecord
100
AcDbTextStyleTableRecord
  2
LiberationMono
 70
0
 40
0.0
 41
1.0
 50
0.0
 71
0
 42
2.5
  3
LiberationMono-Regular.ttf
  4

  0
STYLE
  5
57
330
5
100
AcDbSymbolTableRecord
100
AcDbTextStyleTableRecord
  2
LiberationMono-Bold
 70
0
 40
0.0
 41
1.0
 50
0.0
 71
0
 42
2.5
  3
LiberationMono-Bold.ttf
  4

  0
STYLE
  5
58
330
5
100
AcDbSymbolTableRecord
100
AcDbTextStyleTableRecord
  2
LiberationMono-BoldItalic
 70
0
 40
0.0
 41
1.0
 50
0.0
 71
0
 42
2.5
  3
LiberationMono-BoldItalic.ttf
  4

  0
STYLE
  5
59
330
5
100
AcDbSymbolTableRecord
100
AcDbTextStyleTableRecord
  2
LiberationMono-Italic
 70
0
 40
0.0
 41
1.0
 50
0.0
 71
0
 42
2.5
  3
LiberationMono-Italic.ttf
  4

  0
STYLE
  5
8A
330
5
100
AcDbSymbolTableRecord
100
AcDbTextStyleTableRecord
  2
VN
 70
0
 40
0.0
 41
1.0
 50
0.0
 71
0
 42
2.5
  3
arial.ttf
  4

  0
STYLE
  5
8B
330
5
100
AcDbSymbolTableRecord
100
AcDbTextStyleTableRecord
  2
VNB
 70
0
 40
0.0
 41
1.0
 50
0.0
 71
0
 42
2.5
  3
arialbd.ttf
  4

  0
ENDTAB
  0
TABLE
  2
VIEW
  5
7
330
0
100
AcDbSymbolTable
 70
0
  0
ENDTAB
  0
TABLE
  2
UCS
  5
6
330
0
100
AcDbSymbolTable
 70
0
  0
ENDTAB
  0
TABLE
  2
APPID
  5
3
330
0
100
AcDbSymbolTable
 70
3
  0
APPID
  5
2A
330
3
100
AcDbSymbolTableRecord
100
AcDbRegAppTableRecord
  2
ACAD
 70
0
  0
APPID
  5
1E5
330
3
100
AcDbSymbolTableRecord
100
AcDbRegAppTableRecord
  2
HATCHBACKGROUNDCOLOR
 70
0
  0
APPID
  5
1E6
330
3
100
AcDbSymbolTableRecord
100
AcDbRegAppTableRecord
  2
EZDXF
 70
0
  0
ENDTAB
  0
TABLE
  2
DIMSTYLE
  5
4
330
0
100
AcDbSymbolTable
 70
12
100
AcDbDimStyleTable
  0
DIMSTYLE
105
2B
330
4
100
AcDbSymbolTableRecord
100
AcDbDimStyleTableRecord
  2
Standard
 70
0
 40
1.0
 41
2.5
 42
0.625
 43
3.75
 44
1.25
 45
0.0
 46
0.0
 47
0.0
 48
0.0
 49
2.5
140
2.5
141
2.5
142
0.0
143
0.03937007874
144
1.0
145
0.0
146
1.0
147
0.625
148
0.0
 69
0
 70
0
 71
0
 72
0
 73
0
 74
0
 75
0
 76
0
 77
1
 78
8
 79
3
170
0
171
3
172
1
173
0
174
0
175
0
176
0
177
0
178
0
179
2
271
2
272
2
273
2
274
3
275
0
276
0
277
2
278
44
279
0
280
0
281
0
282
0
283
0
284
8
285
0
286
0
288
0
289
3
290
0
371
-2
372
-2
  0
DIMSTYLE
105
73
330
4
100
AcDbSymbolTableRecord
100
AcDbDimStyleTableRecord
  2
EZDXF
 70
0
 40
1.0
 41
0.175
 42
0.125
 43
3.75
 44
0.375
 45
0.0
 46
0.0
 47
0.0
 48
0.0
 49
2.5
140
0.25
141
2.5
142
0.0
143
0.03937007874
144
100.0
145
0.0
146
0.5
147
0.1
148
0.0
 69
0
 70
0
 71
0
 72
0
 73
0
 74
0
 75
0
 76
0
 77
1
 78
12
 79
3
170
0
171
3
172
1
173
0
174
0
175
0
176
0
177
0
178
0
179
2
271
2
272
2
273
2
274
3
275
0
276
0
277
2
278
46
279
2
280
0
281
0
282
0
283
0
284
8
285
0
286
0
288
1
289
3
290
0
340
4C
342
74
371
-2
372
-2
  0
DIMSTYLE
105
7C
330
4
100
AcDbSymbolTableRecord
100
AcDbDimStyleTableRecord
  2
EZ_M_100_H25_CM
 70
0
 40
1.0
 41
0.25
 42
0.125
 43
3.75
 44
0.375
 45
0.0
 46
0.0
 47
0.0
 48
0.0
 49
2.5
140
0.25
141
2.5
142
0.125
143
0.03937007874
144
100.0
145
0.0
146
0.5
147
0.1
148
0.0
 69
0
 70
0
 71
0
 72
0
 73
0
 74
0
 75
0
 76
0
 77
1
 78
12
 79
3
170
0
171
3
172
1
173
0
174
0
175
0
176
0
177
0
178
0
179
2
271
2
272
2
273
2
274
3
275
0
276
0
277
2
278
46
279
2
280
0
281
0
282
0
283
0
284
8
285
0
286
0
288
1
289
3
290
0
340
4C
371
-2
372
-2
  0
DIMSTYLE
105
7D
330
4
100
AcDbSymbolTableRecord
100
AcDbDimStyleTableRecord
  2
EZ_M_50_H25_CM
 70
0
 40
1.0
 41
0.125
 42
0.0625
 43
3.75
 44
0.1875
 45
0.0
 46
0.0
 47
0.0
 48
0.0
 49
2.5
140
0.125
141
2.5
142
0.0625
143
0.03937007874
144
100.0
145
0.0
146
0.5
147
0.05
148
0.0
 69
0
 70
0
 71
0
 72
0
 73
0
 74
0
 75
0
 76
0
 77
1
 78
12
 79
3
170
0
171
3
172
1
173
0
174
0
175
0
176
0
177
0
178
0
179
2
271
2
272
2
273
2
274
3
275
0
276
0
277
2
278
46
279
2
280
0
281
0
282
0
283
0
284
8
285
0
286
0
288
1
289
3
290
0
340
4C
371
-2
372
-2
  0
DIMSTYLE
105
7E
330
4
100
AcDbSymbolTableRecord
100
AcDbDimStyleTableRecord
  2
EZ_M_25_H25_CM
 70
0
 40
1.0
 41
0.0625
 42
0.03125
 43
3.75
 44
0.09375
 45
0.0
 46
0.0
 47
0.0
 48
0.0
 49
2.5
140
0.0625
141
2.5
142
0.03125
143
0.03937007874
144
100.0
145
0.0
146
0.5
147
0.025
148
0.0
 69
0
 70
0
 71
0
 72
0
 73
0
 74
0
 75
0
 76
0
 77
1
 78
12
 79
3
170
0
171
3
172
1
173
0
174
0
175
0
176
0
177
0
178
0
179
2
271
2
272
2
273
2
274
3
275
0
276
0
277
2
278
46
279
2
280
0
281
0
282
0
283
0
284
8
285
0
286
0
288
1
289
3
290
0
340
4C
371
-2
372
-2
  0
DIMSTYLE
105
7F
330
4
100
AcDbSymbolTableRecord
100
AcDbDimStyleTableRecord
  2
EZ_M_20_H25_CM
 70
0
 40
1.0
 41
0.05
 42
0.025
 43
3.75
 44
0.07500000000000001
 45
0.0
 46
0.0
 47
0.0
 48
0.0
 49
2.5
140
0.05
141
2.5
142
0.025
143
0.03937007874
144
100.0
145
0.0
146
0.5
147
0.020000000000000004
148
0.0
 69
0
 70
0
 71
0
 72
0
 73
0
 74
0
 75
0
 76
0
 77
1
 78
12
 79
3
170
0
171
3
172
1
173
0
174
0
175
0
176
0
177
0
178
0
179
2
271
2
272
2
273
2
274
3
275
0
276
0
277
2
278
46
279
2
280
0
281
0
282
0
283
0
284
8
285
0
286
0
288
1
289
3
290
0
340
4C
371
-2
372
-2
  0
DIMSTYLE
105
80
330
4
100
AcDbSymbolTableRecord
100
AcDbDimStyleTableRecord
  2
EZ_M_10_H25_CM
 70
0
 40
1.0
 41
0.025
 42
0.0125
 43
3.75
 44
0.037500000000000006
 45
0.0
 46
0.0
 47
0.0
 48
0.0
 49
2.5
140
0.025
141
2.5
142
0.0125
143
0.03937007874
144
100.0
145
0.0
146
0.5
147
0.010000000000000002
148
0.0
 69
0
 70
0
 71
0
 72
0
 73
0
 74
0
 75
0
 76
0
 77
1
 78
12
 79
3
170
0
171
3
172
1
173
0
174
0
175
0
176
0
177
0
178
0
179
2
271
2
272
2
273
2
274
3
275
0
276
0
277
2
278
46
279
2
280
0
281
0
282
0
283
0
284
8
285
0
286
0
288
1
289
3
290
0
340
4C
371
-2
372
-2
  0
DIMSTYLE
105
81
330
4
100
AcDbSymbolTableRecord
100
AcDbDimStyleTableRecord
  2
EZ_M_5_H25_CM
 70
0
 40
1.0
 41
0.0125
 42
0.00625
 43
3.75
 44
0.018750000000000003
 45
0.0
 46
0.0
 47
0.0
 48
0.0
 49
2.5
140
0.0125
141
2.5
142
0.00625
143
0.03937007874
144
100.0
145
0.0
146
0.5
147
0.005000000000000001
148
0.0
 69
0
 70
0
 71
0
 72
0
 73
0
 74
0
 75
0
 76
0
 77
1
 78
12
 79
3
170
0
171
3
172
1
173
0
174
0
175
0
176
0
177
0
178
0
179
2
271
2
272
2
273
2
274
3
275
0
276
0
277
2
278
46
279
2
280
0
281
0
282
0
283
0
284
8
285
0
286
0
288
1
289
3
290
0
340
4C
371
-2
372
-2
  0
DIMSTYLE
105
82
330
4
100
AcDbSymbolTableRecord
100
AcDbDimStyleTableRecord
  2
EZ_M_1_H25_CM
 70
0
 40
1.0
 41
0.0025
 42
0.00125
 43
3.75
 44
0.00375
 45
0.0
 46
0.0
 47
0.0
 48
0.0
 49
2.5
140
0.0025
141
2.5
142
0.00125
143
0.03937007874
144
100.0
145
0.0
146
0.5
147
0.001
148
0.0
 69
0
 70
0
 71
0
 72
0
 73
0
 74
0
 75
0
 76
0
 77
1
 78
12
 79
3
170
0
171
3
172
1
173
0
174
0
175
0
176
0
177
0
178
0
179
2
271
2
272
2
273
2
274
3
275
0
276
0
277
2
278
46
279
2
280
0
281
0
282
0
283
0
284
8
285
0
286
0
288
1
289
3
290
0
340
4C
371
-2
372
-2
  0
DIMSTYLE
105
83
330
4
100
AcDbSymbolTableRecord
100
AcDbDimStyleTableRecord
  2
EZ_RADIUS
 70
0
 40
1.0
 41
0.25
 42
0.125
 43
3.75
 44
0.375
 45
0.0
 46
0.0
 47
0.0
 48
0.0
 49
2.5
140
0.25
141
0.0
142
0.0
143
0.03937007874
144
100.0
145
0.0
146
0.5
147
0.1
148
0.0
 69
0
 70
0
 71
0
 72
0
 73
0
 74
0
 75
0
 76
0
 77
1
 78
12
 79
3
170
0
171
3
172
0
173
0
174
0
175
0
176
0
177
0
178
0
179
2
271
2
272
2
273
2
274
3
275
0
276
0
277
2
278
46
279
1
280
0
281
0
282
0
283
0
284
8
285
0
286
0
288
1
289
3
290
0
340
4C
342
84
371
-2
372
-2
  0
DIMSTYLE
105
88
330
4
100
AcDbSymbolTableRecord
100
AcDbDimStyleTableRecord
  2
EZ_RADIUS_INSIDE
 70
0
 40
1.0
 41
0.25
 42
0.125
 43
3.75
 44
0.375
 45
0.0
 46
0.0
 47
0.0
 48
0.0
 49
2.5
140
0.25
141
0.0
142
0.0
143
0.03937007874
144
100.0
145
0.0
146
0.5
147
0.1
148
0.0
 69
0
 70
0
 71
0
 72
0
 73
0
 74
0
 75
0
 76
0
 77
0
 78
12
 79
3
170
0
171
3
172
0
173
0
174
1
175
0
176
0
177
0
178
0
179
2
271
2
272
2
273
2
274
3
275
0
276
0
277
2
278
46
279
0
280
0
281
0
282
0
283
0
284
8
285
0
286
0
288
1
289
0
290
0
340
4C
342
84
371
-2
372
-2
  0
DIMSTYLE
105
89
330
4
100
AcDbSymbolTableRecord
100
AcDbDimStyleTableRecord
  2
EZ_CURVED
 70
0
 40
1.0
 41
0.25
 42
0.125
 43
3.75
 44
0.375
 45
0.0
 46
0.0
 47
0.0
 48
0.0
 49
2.5
140
0.25
141
2.5
142
0.0
143
0.03937007874
144
100.0
145
0.0
146
0.5
147
0.1
148
0.0
 69
0
 70
0
 71
0
 72
0
 73
0
 74
0
 75
0
 76
0
 77
1
 78
12
 79
2
 90
2
170
0
171
3
172
1
173
0
174
0
175
0
176
0
177
0
178
0
179
2
271
2
272
2
273
2
274
3
275
0
276
0
277
2
278
46
279
2
280
0
281
0
282
0
283
0
284
8
285
0
286
0
288
1
289
3
290
0
340
4C
371
-2
372
-2
  0
ENDTAB
  0
TABLE
  2
BLOCK_RECORD
  5
9
330
0
100
AcDbSymbolTable
 70
5
  0
BLOCK_RECORD
  5
17
330
9
100
AcDbSymbolTableRecord
100
AcDbBlockTableRecord
  2
*Model_Space
340
1A
 70
0
280
1
281
0
  0
BLOCK_RECORD
  5
1B
330
9
100
AcDbSymbolTableRecord
100
AcDbBlockTableRecord
  2
*Paper_Space
340
1E
 70
0
280
1
281
0
  0
BLOCK_RECORD
  5
74
330
9
100
AcDbSymbolTableRecord
100
AcDbBlockTableRecord
  2
_ARCHTICK
340
0
 70
0
280
1
281
0
  0
BLOCK_RECORD
  5
78
330
9
100
AcDbSymbolTableRecord
100
AcDbBlockTableRecord
  2
_CLOSEDFILLED
340
0
 70
0
280
1
281
0
  0
BLOCK_RECORD
  5
84
330
9
100
AcDbSymbolTableRecord
100
AcDbBlockTableRecord
  2
_CLOSEDBLANK
340
0
 70
0
280
1
281
0
  0
ENDTAB
  0
ENDSEC
  0
SECTION
  2
BLOCKS
  0
BLOCK
  5
18
330
17
100
AcDbEntity
  8
0
100
AcDbBlockBegin
  2
*Model_Space
 70
0
 10
0.0
 20
0.0
 30
0.0
  3
*Model_Space
  1

  0
ENDBLK
  5
19
330
17
100
AcDbEntity
  8
0
100
AcDbBlockEnd
  0
BLOCK
  5
1C
330
1B
100
AcDbEntity
  8
0
100
AcDbBlockBegin
  2
*Paper_Space
 70
0
 10
0.0
 20
0.0
 30
0.0
  3
*Paper_Space
  1

  0
ENDBLK
  5
1D
330
1B
100
AcDbEntity
  8
0
100
AcDbBlockEnd
  0
BLOCK
  5
75
330
74
100
AcDbEntity
  8
0
100
AcDbBlockBegin
  2
_ARCHTICK
 70
0
 10
0.0
 20
0.0
 30
0.0
  3
_ARCHTICK
  1

  0
LWPOLYLINE
  5
77
330
74
100
AcDbEntity
  8
0
  6
BYBLOCK
 62
0
100
AcDbPolyline
 90
2
 70
0
 43
0.15
 10
-0.5
 20
-0.5
 10
0.5
 20
0.5
  0
ENDBLK
  5
76
330
74
100
AcDbEntity
  8
0
100
AcDbBlockEnd
  0
BLOCK
  5
79
330
78
100
AcDbEntity
  8
0
100
AcDbBlockBegin
  2
_CLOSEDFILLED
 70
0
 10
0.0
 20
0.0
 30
0.0
  3
_CLOSEDFILLED
  1

  0
SOLID
  5
7B
330
78
100
AcDbEntity
  8
0
  6
BYBLOCK
 62
0
100
AcDbTrace
 10
-1.0
 20
0.16439898372402537
 30
0.0
 11
0.0
 21
0.0
 31
0.0
 12
-1.0
 22
-0.16439898372402537
 32
0.0
 13
-1.0
 23
-0.16439898372402537
 33
0.0
  0
ENDBLK
  5
7A
330
78
100
AcDbEntity
  8
0
100
AcDbBlockEnd
  0
BLOCK
  5
85
330
84
100
AcDbEntity
  8
0
100
AcDbBlockBegin
  2
_CLOSEDBLANK
 70
0
 10
0.0
 20
0.0
 30
0.0
  3
_CLOSEDBLANK
  1

  0
LWPOLYLINE
  5
87
330
84
100
AcDbEntity
  8
0
  6
BYBLOCK
 62
0
100
AcDbPolyline
 90
3
 70
1
 10
-1.0
 20
0.16439898372402537
 10
0.0
 20
0.0
 10
-1.0
 20
-0.16439898372402537
  0
ENDBLK
  5
86
330
84
100
AcDbEntity
  8
0
100
AcDbBlockEnd
  0
ENDSEC
  0
SECTION
  2
ENTITIES
  0
LWPOLYLINE
  5
94
330
17
100
AcDbEntity
  8
KHUNG
370
50
100
AcDbPolyline
 90
4
 70
1
 10
0.0
 20
0.0
 10
420.0
 20
0.0
 10
420.0
 20
297.0
 10
0.0
 20
297.0
  0
LWPOLYLINE
  5
95
330
17
100
AcDbEntity
  8
KHUNG
370
25
100
AcDbPolyline
 90
4
 70
1
 10
10.0
 20
10.0
 10
410.0
 20
10.0
 10
410.0
 20
287.0
 10
10.0
 20
287.0
  0
LWPOLYLINE
  5
96
330
17
100
AcDbEntity
  8
KHUNG
370
35
100
AcDbPolyline
 90
4
 70
1
 10
230.0
 20
10.0
 10
410.0
 20
10.0
 10
410.0
 20
52.0
 10
230.0
 20
52.0
  0
LINE
  5
97
330
17
100
AcDbEntity
  8
KHUNG
100
AcDbLine
 10
330.0
 20
10.0
 30
0.0
 11
330.0
 21
52.0
 31
0.0
  0
LINE
  5
98
330
17
100
AcDbEntity
  8
KHUNG
100
AcDbLine
 10
230.0
 20
42.0
 30
0.0
 11
330.0
 21
42.0
 31
0.0
  0
LINE
  5
99
330
17
100
AcDbEntity
  8
KHUNG
100
AcDbLine
 10
230.0
 20
32.0
 30
0.0
 11
330.0
 21
32.0
 31
0.0
  0
LINE
  5
9A
330
17
100
AcDbEntity
  8
KHUNG
100
AcDbLine
 10
330.0
 20
17.0
 30
0.0
 11
410.0
 21
17.0
 31
0.0
  0
LINE
  5
9B
330
17
100
AcDbEntity
  8
KHUNG
100
AcDbLine
 10
330.0
 20
24.0
 30
0.0
 11
410.0
 21
24.0
 31
0.0
  0
LINE
  5
9C
330
17
100
AcDbEntity
  8
KHUNG
100
AcDbLine
 10
330.0
 20
31.0
 30
0.0
 11
410.0
 21
31.0
 31
0.0
  0
LINE
  5
9D
330
17
100
AcDbEntity
  8
KHUNG
100
AcDbLine
 10
330.0
 20
38.0
 30
0.0
 11
410.0
 21
38.0
 31
0.0
  0
LINE
  5
9E
330
17
100
AcDbEntity
  8
KHUNG
100
AcDbLine
 10
330.0
 20
45.0
 30
0.0
 11
410.0
 21
45.0
 31
0.0
  0
LINE
  5
9F
330
17
100
AcDbEntity
  8
KHUNG
100
AcDbLine
 10
370.0
 20
10.0
 30
0.0
 11
370.0
 21
52.0
 31
0.0
  0
TEXT
  5
A0
330
17
100
AcDbEntity
  8
GHI_CHU
100
AcDbText
 10
232.0
 20
47.0
 30
0.0
 40
2.1
  1
ĐƠN VỊ: HỆ THỐNG ĐIỀU KHIỂN NHÀ MÁY THỦY ĐIỆN NỘI BỘ
  7
VNB
 11
232.0
 21
47.0
 31
0.0
100
AcDbText
 73
2
  0
TEXT
  5
A1
330
17
100
AcDbEntity
  8
GHI_CHU
100
AcDbText
 10
232.0
 20
37.0
 30
0.0
 40
2.1
  1
CÔNG TRÌNH: TỦ ĐIỀU KHIỂN PLC S7-1511F
  7
VN
 11
232.0
 21
37.0
 31
0.0
100
AcDbText
 73
2
  0
TEXT
  5
A2
330
17
100
AcDbEntity
  8
GHI_CHU
100
AcDbText
 10
232.0
 20
27.0
 30
0.0
 40
2.1
  1
TÊN BẢN VẼ: SƠ ĐỒ MẠCH ĐIỀU KHIỂN PLC
  7
VNB
 11
232.0
 21
27.0
 31
0.0
100
AcDbText
 73
2
  0
TEXT
  5
A3
330
17
100
AcDbEntity
  8
GHI_CHU
 62
8
100
AcDbText
 10
232.0
 20
16.0
 30
0.0
 40
1.9
  1
BẢN VẼ SINH BỞI AI – DXF R2007 (AUTOCAD 2007)
  7
VN
 11
232.0
 21
16.0
 31
0.0
100
AcDbText
 73
2
  0
TEXT
  5
A4
330
17
100
AcDbEntity
  8
GHI_CHU
100
AcDbText
 10
332.0
 20
48.5
 30
0.0
 40
1.8
  1
NGƯỜI VẼ: AI (Arena)
  7
VN
 11
332.0
 21
48.5
 31
0.0
100
AcDbText
 73
2
  0
TEXT
  5
A5
330
17
100
AcDbEntity
  8
GHI_CHU
100
AcDbText
 10
372.0
 20
48.5
 30
0.0
 40
1.8
  1
NGÀY: 05/09/2026
  7
VN
 11
372.0
 21
48.5
 31
0.0
100
AcDbText
 73
2
  0
TEXT
  5
A6
330
17
100
AcDbEntity
  8
GHI_CHU
100
AcDbText
 10
332.0
 20
41.5
 30
0.0
 40
1.8
  1
KIỂM TRA: ..........
  7
VN
 11
332.0
 21
41.5
 31
0.0
100
AcDbText
 73
2
  0
TEXT
  5
A7
330
17
100
AcDbEntity
  8
GHI_CHU
100
AcDbText
 10
372.0
 20
41.5
 30
0.0
 40
1.8
  1
TỈ LỆ: KT
  7
VN
 11
372.0
 21
41.5
 31
0.0
100
AcDbText
 73
2
  0
TEXT
  5
A8
330
17
100
AcDbEntity
  8
GHI_CHU
100
AcDbText
 10
332.0
 20
34.5
 30
0.0
 40
1.8
  1
DUYỆT: ..........
  7
VN
 11
332.0
 21
34.5
 31
0.0
100
AcDbText
 73
2
  0
TEXT
  5
A9
330
17
100
AcDbEntity
  8
GHI_CHU
100
AcDbText
 10
372.0
 20
34.5
 30
0.0
 40
1.8
  1
GIẤC: A3
  7
VN
 11
372.0
 21
34.5
 31
0.0
100
AcDbText
 73
2
  0
TEXT
  5
AA
330
17
100
AcDbEntity
  8
GHI_CHU
100
AcDbText
 10
332.0
 20
27.5
 30
0.0
 40
1.8
  1
SỐ BẢN VẼ: TD-01
  7
VN
 11
332.0
 21
27.5
 31
0.0
100
AcDbText
 73
2
  0
TEXT
  5
AB
330
17
100
AcDbEntity
  8
GHI_CHU
100
AcDbText
 10
372.0
 20
27.5
 30
0.0
 40
1.8
  1
ĐƠN VỊ TÍNH: mm
  7
VN
 11
372.0
 21
27.5
 31
0.0
100
AcDbText
 73
2
  0
TEXT
  5
AC
330
17
100
AcDbEntity
  8
GHI_CHU
100
AcDbText
 10
332.0
 20
20.5
 30
0.0
 40
1.8
  1
MÃ HỒ SƠ: TD-01-2026
  7
VN
 11
332.0
 21
20.5
 31
0.0
100
AcDbText
 73
2
  0
TEXT
  5
AD
330
17
100
AcDbEntity
  8
GHI_CHU
100
AcDbText
 10
372.0
 20
20.5
 30
0.0
 40
1.8
  1
LẦN BV: 00
  7
VN
 11
372.0
 21
20.5
 31
0.0
100
AcDbText
 73
2
  0
TEXT
  5
AE
330
17
100
AcDbEntity
  8
GHI_CHU
100
AcDbText
 10
332.0
 20
13.5
 30
0.0
 40
1.8
  1
SỐ KỆ: ....
  7
VN
 11
332.0
 21
13.5
 31
0.0
100
AcDbText
 73
2
  0
TEXT
  5
AF
330
17
100
AcDbEntity
  8
GHI_CHU
100
AcDbText
 10
372.0
 20
13.5
 30
0.0
 40
1.8
  1
SỐ TRANG: 1/1
  7
VN
 11
372.0
 21
13.5
 31
0.0
100
AcDbText
 73
2
  0
TEXT
  5
B0
330
17
100
AcDbEntity
  8
GHI_CHU
100
AcDbText
 10
12.0
 20
281.0
 30
0.0
 40
5.0
  1
SƠ ĐỒ MẠCH ĐIỀU KHIỂN PLC S7-1511F – NHÀ MÁY THỦY ĐIỆN NỘI BỘ
  7
VNB
 11
12.0
 21
281.0
 31
0.0
100
AcDbText
 73
2
  0
TEXT
  5
B1
330
17
100
AcDbEntity
  8
GHI_CHU
100
AcDbText
 10
13.0
 20
268.0
 30
0.0
 40
3.0
  1
1. NGUỒN ĐIỀU KHIỂN
  7
VNB
 11
13.0
 21
268.0
 31
0.0
100
AcDbText
 73
2
  0
TEXT
  5
B2
330
17
100
AcDbEntity
  8
GHI_CHU
100
AcDbText
 10
78.0
 20
268.0
 30
0.0
 40
3.0
  1
2. TÍN HIỆU VÀO (DI / F-DI / AI)
  7
VNB
 11
78.0
 21
268.0
 31
0.0
100
AcDbText
 73
2
  0
TEXT
  5
B3
330
17
100
AcDbEntity
  8
GHI_CHU
100
AcDbText
 10
296.0
 20
268.0
 30
0.0
 40
3.0
  1
3. TÍN HIỆU RA & TẢI (DQ / AQ)
  7
VNB
 11
296.0
 21
268.0
 31
0.0
100
AcDbText
 73
2
  0
TEXT
  5
B4
330
17
100
AcDbEntity
  8
GHI_CHU
100
AcDbText
 10
16.0
 20
254.0
 30
0.0
 40
2.2
  1
L1
  7
VN
 72
2
 11
16.0
 21
254.0
 31
0.0
100
AcDbText
 73
2
  0
TEXT
  5
B5
330
17
100
AcDbEntity
  8
GHI_CHU
100
AcDbText
 10
16.0
 20
246.0
 30
0.0
 40
2.2
  1
N
  7
VN
 72
2
 11
16.0
 21
246.0
 31
0.0
100
AcDbText
 73
2
  0
HATCH
  5
B6
330
17
100
AcDbEntity
  8
DAY_CHINH
 62
7
100
AcDbHatch
 10
0.0
 20
0.0
 30
0.0
210
0.0
220
0.0
230
1.0
  2
SOLID
 70
0
 71
0
 91
1
 92
3
 72
0
 73
1
 93
12
 10
18.45
 20
254.0
 10
18.389711431703
 20
254.225
 10
18.225
 20
254.389711431703
 10
18.0
 20
254.45
 10
17.775
 20
254.389711431703
 10
17.610288568297
 20
254.225
 10
17.55
 20
254.0
 10
17.610288568297
 20
253.775
 10
17.775
 20
253.610288568297
 10
18.0
 20
253.55
 10
18.225
 20
253.610288568297
 10
18.389711431703
 20
253.775
 97
0
 75
1
 76
1
 52
0.0
 41
1.0
 77
0
 78
1
 53
45.0
 43
0.0
 44
0.0
 45
-0.0883883476
 46
0.0883883476
 79
0
 98
0
  0
HATCH
  5
B7
330
17
100
AcDbEntity
  8
DAY_CHINH
 62
7
100
AcDbHatch
 10
0.0
 20
0.0
 30
0.0
210
0.0
220
0.0
230
1.0
  2
SOLID
 70
0
 71
0
 91
1
 92
3
 72
0
 73
1
 93
12
 10
26.45
 20
254.0
 10
26.389711431703
 20
254.225
 10
26.225
 20
254.389711431703
 10
26.0
 20
254.45
 10
25.775
 20
254.389711431703
 10
25.610288568297
 20
254.225
 10
25.55
 20
254.0
 10
25.610288568297
 20
253.775
 10
25.775
 20
253.610288568297
 10
26.0
 20
253.55
 10
26.225
 20
253.610288568297
 10
26.389711431703
 20
253.775
 97
0
 75
1
 76
1
 52
0.0
 41
1.0
 77
0
 78
1
 53
45.0
 43
0.0
 44
0.0
 45
-0.0883883476
 46
0.0883883476
 79
0
 98
0
  0
LINE
  5
B8
330
17
100
AcDbEntity
  8
DAY_CHINH
100
AcDbLine
 10
18.0
 20
254.0
 30
0.0
 11
21.36
 21
254.0
 31
0.0
  0
LINE
  5
B9
330
17
100
AcDbEntity
  8
DAY_CHINH
100
AcDbLine
 10
22.64
 20
254.0
 30
0.0
 11
26.0
 21
254.0
 31
0.0
  0
LINE
  5
BA
330
17
100
AcDbEntity
  8
DAY_CHINH
100
AcDbLine
 10
21.36
 20
254.0
 30
0.0
 11
22.64
 21
256.6
 31
0.0
  0
TEXT
  5
BB
330
17
100
AcDbEntity
  8
GHI_CHU
100
AcDbText
 10
22.0
 20
258.2
 30
0.0
 40
2.0
  1
QF1
  7
VNB
 72
1
 11
22.0
 21
258.2
 31
0.0
100
AcDbText
 73
2
  0
LINE
  5
BC
330
17
100
AcDbEntity
  8
DAY_CHINH
100
AcDbLine
 10
26.0
 20
254.0
 30
0.0
 11
30.0
 21
254.0
 31
0.0
  0
LINE
  5
BD
330
17
100
AcDbEntity
  8
DAY_CHINH
100
AcDbLine
 10
17.0
 20
246.0
 30
0.0
 11
30.0
 21
246.0
 31
0.0
  0
TEXT
  5
BE
330
17
100
AcDbEntity
  8
GHI_CHU
 62
8
100
AcDbText
 10
23.0
 20
250.0
 30
0.0
 40
1.8
  1
AC 230V
  7
VN
 72
1
 11
23.0
 21
250.0
 31
0.0
100
AcDbText
 73
2
  0
LWPOLYLINE
  5
BF
330
17
100
AcDbEntity
  8
THIET_BI
100
AcDbPolyline
 90
4
 70
1
 10
30.0
 20
230.0
 10
64.0
 20
230.0
 10
64.0
 20
258.0
 10
30.0
 20
258.0
  0
TEXT
  5
C0
330
17
100
AcDbEntity
  8
GHI_CHU
100
AcDbText
 10
47.0
 20
251.5
 30
0.0
 40
2.4
  1
BỘ NGUỒN
  7
VNB
 72
1
 11
47.0
 21
251.5
 31
0.0
100
AcDbText
 73
2
  0
TEXT
  5
C1
330
17
100
AcDbEntity
  8
GHI_CHU
100
AcDbText
 10
47.0
 20
246.5
 30
0.0
 40
2.4
  1
SWITCHING
  7
VNB
 72
1
 11
47.0
 21
246.5
 31
0.0
100
AcDbText
 73
2
  0
TEXT
  5
C2
330
17
100
AcDbEntity
  8
GHI_CHU
100
AcDbText
 10
47.0
 20
241.5
 30
0.0
 40
2.0
  1
24VDC / 10A
  7
VN
 72
1
 11
47.0
 21
241.5
 31
0.0
100
AcDbText
 73
2
  0
TEXT
  5
C3
330
17
100
AcDbEntity
  8
GHI_CHU
 62
8
100
AcDbText
 10
47.0
 20
236.5
 30
0.0
 40
1.8
  1
SITOP PSU100S
  7
VN
 72
1
 11
47.0
 21
236.5
 31
0.0
100
AcDbText
 73
2
  0
LINE
  5
C4
330
17
100
AcDbEntity
  8
DAY_CHINH
100
AcDbLine
 10
36.0
 20
230.0
 30
0.0
 11
36.0
 21
226.0
 31
0.0
  0
LINE
  5
C5
330
17
100
AcDbEntity
  8
DAY_CHINH
100
AcDbLine
 10
33.0
 20
225.5
 30
0.0
 11
39.0
 21
225.5
 31
0.0
  0
LINE
  5
C6
330
17
100
AcDbEntity
  8
DAY_CHINH
100
AcDbLine
 10
34.02
 20
224.1
 30
0.0
 11
37.98
 21
224.1
 31
0.0
  0
LINE
  5
C7
330
17
100
AcDbEntity
  8
DAY_CHINH
100
AcDbLine
 10
35.01
 20
222.7
 30
0.0
 11
36.99
 21
222.7
 31
0.0
  0
TEXT
  5
C8
330
17
100
AcDbEntity
  8
GHI_CHU
 62
8
100
AcDbText
 10
39.0
 20
228.5
 30
0.0
 40
2.0
  1
PE
  7
VN
 11
39.0
 21
228.5
 31
0.0
100
AcDbText
 73
2
  0
LINE
  5
C9
330
17
100
AcDbEntity
  8
DAY_CHINH
100
AcDbLine
 10
64.0
 20
254.0
 30
0.0
 11
72.0
 21
254.0
 31
0.0
  0
TEXT
  5
CA
330
17
100
AcDbEntity
  8
GHI_CHU
100
AcDbText
 10
68.0
 20
256.3
 30
0.0
 40
2.0
  1
+24V
  7
VN
 72
1
 11
68.0
 21
256.3
 31
0.0
100
AcDbText
 73
2
  0
LINE
  5
CB
330
17
100
AcDbEntity
  8
DAY_CHINH
100
AcDbLine
 10
64.0
 20
246.0
 30
0.0
 11
68.0
 21
246.0
 31
0.0
  0
LINE
  5
CC
330
17
100
AcDbEntity
  8
DAY_CHINH
100
AcDbLine
 10
68.0
 20
246.0
 30
0.0
 11
68.0
 21
57.0
 31
0.0
  0
LINE
  5
CD
330
17
100
AcDbEntity
  8
DAY_CHINH
370
60
100
AcDbLine
 10
72.0
 20
254.0
 30
0.0
 11
72.0
 21
64.0
 31
0.0
  0
LINE
  5
CE
330
17
100
AcDbEntity
  8
DAY_CHINH
100
AcDbLine
 10
72.0
 20
254.0
 30
0.0
 11
78.0
 21
254.0
 31
0.0
  0
HATCH
  5
CF
330
17
100
AcDbEntity
  8
DAY_CHINH
 62
7
100
AcDbHatch
 10
0.0
 20
0.0
 30
0.0
210
0.0
220
0.0
230
1.0
  2
SOLID
 70
0
 71
0
 91
1
 92
3
 72
0
 73
1
 93
12
 10
72.55
 20
254.0
 10
72.47631397208144
 20
254.275
 10
72.275
 20
254.47631397208144
 10
72.0
 20
254.55
 10
71.725
 20
254.47631397208144
 10
71.52368602791856
 20
254.275
 10
71.45
 20
254.0
 10
71.52368602791856
 20
253.725
 10
71.725
 20
253.52368602791856
 10
72.0
 20
253.45
 10
72.275
 20
253.52368602791856
 10
72.47631397208144
 20
253.725
 97
0
 75
1
 76
1
 52
0.0
 41
1.0
 77
0
 78
1
 53
45.0
 43
0.0
 44
0.0
 45
-0.0883883476
 46
0.0883883476
 79
0
 98
0
  0
HATCH
  5
D0
330
17
100
AcDbEntity
  8
DAY_CHINH
 62
7
100
AcDbHatch
 10
0.0
 20
0.0
 30
0.0
210
0.0
220
0.0
230
1.0
  2
SOLID
 70
0
 71
0
 91
1
 92
3
 72
0
 73
1
 93
12
 10
78.45
 20
254.0
 10
78.38971143170299
 20
254.225
 10
78.225
 20
254.389711431703
 10
78.0
 20
254.45
 10
77.775
 20
254.389711431703
 10
77.61028856829701
 20
254.225
 10
77.55
 20
254.0
 10
77.61028856829701
 20
253.775
 10
77.775
 20
253.610288568297
 10
78.0
 20
253.55
 10
78.225
 20
253.610288568297
 10
78.38971143170299
 20
253.775
 97
0
 75
1
 76
1
 52
0.0
 41
1.0
 77
0
 78
1
 53
45.0
 43
0.0
 44
0.0
 45
-0.0883883476
 46
0.0883883476
 79
0
 98
0
  0
HATCH
  5
D1
330
17
100
AcDbEntity
  8
DAY_CHINH
 62
7
100
AcDbHatch
 10
0.0
 20
0.0
 30
0.0
210
0.0
220
0.0
230
1.0
  2
SOLID
 70
0
 71
0
 91
1
 92
3
 72
0
 73
1
 93
12
 10
86.45
 20
254.0
 10
86.38971143170299
 20
254.225
 10
86.225
 20
254.389711431703
 10
86.0
 20
254.45
 10
85.775
 20
254.389711431703
 10
85.61028856829701
 20
254.225
 10
85.55
 20
254.0
 10
85.61028856829701
 20
253.775
 10
85.775
 20
253.610288568297
 10
86.0
 20
253.55
 10
86.225
 20
253.610288568297
 10
86.38971143170299
 20
253.775
 97
0
 75
1
 76
1
 52
0.0
 41
1.0
 77
0
 78
1
 53
45.0
 43
0.0
 44
0.0
 45
-0.0883883476
 46
0.0883883476
 79
0
 98
0
  0
LINE
  5
D2
330
17
100
AcDbEntity
  8
DAY_CHINH
100
AcDbLine
 10
78.0
 20
254.0
 30
0.0
 11
81.36
 21
254.0
 31
0.0
  0
LINE
  5
D3
330
17
100
AcDbEntity
  8
DAY_CHINH
100
AcDbLine
 10
82.64
 20
254.0
 30
0.0
 11
86.0
 21
254.0
 31
0.0
  0
LINE
  5
D4
330
17
100
AcDbEntity
  8
DAY_CHINH
100
AcDbLine
 10
81.36
 20
254.0
 30
0.0
 11
82.64
 21
256.6
 31
0.0
  0
LINE
  5
D5
330
17
100
AcDbEntity
  8
DAY_CHINH
100
AcDbLine
 10
86.0
 20
254.0
 30
0.0
 11
162.0
 21
254.0
 31
0.0
  0
TEXT
  5
D6
330
17
100
AcDbEntity
  8
GHI_CHU
100
AcDbText
 10
82.0
 20
257.2
 30
0.0
 40
2.2
  1
SB1
  7
VNB
 72
1
 11
82.0
 21
257.2
 31
0.0
100
AcDbText
 73
2
  0
TEXT
  5
D7
330
17
100
AcDbEntity
  8
GHI_CHU
100
AcDbText
 10
112.0
 20
250.5
 30
0.0
 40
2.0
  1
VAN BAFFLE – MỞ/ĐÓNG
  7
VN
 11
112.0
 21
250.5
 31
0.0
100
AcDbText
 73
2
  0
TEXT
  5
D8
330
17
100
AcDbEntity
  8
PLC
100
AcDbText
 10
156.0
 20
255.8
 30
0.0
 40
2.0
  1
I0.0
  7
VN
 72
2
 11
156.0
 21
255.8
 31
0.0
100
AcDbText
 73
2
  0
LINE
  5
D9
330
17
100
AcDbEntity
  8
DAY_CHINH
100
AcDbLine
 10
72.0
 20
243.0
 30
0.0
 11
78.0
 21
243.0
 31
0.0
  0
HATCH
  5
DA
330
17
100
AcDbEntity
  8
DAY_CHINH
 62
7
100
AcDbHatch
 10
0.0
 20
0.0
 30
0.0
210
0.0
220
0.0
230
1.0
  2
SOLID
 70
0
 71
0
 91
1
 92
3
 72
0
 73
1
 93
12
 10
72.55
 20
243.0
 10
72.47631397208144
 20
243.275
 10
72.275
 20
243.47631397208144
 10
72.0
 20
243.55
 10
71.725
 20
243.47631397208144
 10
71.52368602791856
 20
243.275
 10
71.45
 20
243.0
 10
71.52368602791856
 20
242.725
 10
71.725
 20
242.52368602791856
 10
72.0
 20
242.45
 10
72.275
 20
242.52368602791856
 10
72.47631397208144
 20
242.725
 97
0
 75
1
 76
1
 52
0.0
 41
1.0
 77
0
 78
1
 53
45.0
 43
0.0
 44
0.0
 45
-0.0883883476
 46
0.0883883476
 79
0
 98
0
  0
HATCH
  5
DB
330
17
100
AcDbEntity
  8
DAY_CHINH
 62
7
100
AcDbHatch
 10
0.0
 20
0.0
 30
0.0
210
0.0
220
0.0
230
1.0
  2
SOLID
 70
0
 71
0
 91
1
 92
3
 72
0
 73
1
 93
12
 10
78.45
 20
243.0
 10
78.38971143170299
 20
243.225
 10
78.225
 20
243.389711431703
 10
78.0
 20
243.45
 10
77.775
 20
243.389711431703
 10
77.61028856829701
 20
243.225
 10
77.55
 20
243.0
 10
77.61028856829701
 20
242.775
 10
77.775
 20
242.610288568297
 10
78.0
 20
242.55
 10
78.225
 20
242.610288568297
 10
78.38971143170299
 20
242.775
 97
0
 75
1
 76
1
 52
0.0
 41
1.0
 77
0
 78
1
 53
45.0
 43
0.0
 44
0.0
 45
-0.0883883476
 46
0.0883883476
 79
0
 98
0
  0
HATCH
  5
DC
330
17
100
AcDbEntity
  8
DAY_CHINH
 62
7
100
AcDbHatch
 10
0.0
 20
0.0
 30
0.0
210
0.0
220
0.0
230
1.0
  2
SOLID
 70
0
 71
0
 91
1
 92
3
 72
0
 73
1
 93
12
 10
86.45
 20
243.0
 10
86.38971143170299
 20
243.225
 10
86.225
 20
243.389711431703
 10
86.0
 20
243.45
 10
85.775
 20
243.389711431703
 10
85.61028856829701
 20
243.225
 10
85.55
 20
243.0
 10
85.61028856829701
 20
242.775
 10
85.775
 20
242.610288568297
 10
86.0
 20
242.55
 10
86.225
 20
242.610288568297
 10
86.38971143170299
 20
242.775
 97
0
 75
1
 76
1
 52
0.0
 41
1.0
 77
0
 78
1
 53
45.0
 43
0.0
 44
0.0
 45
-0.0883883476
 46
0.0883883476
 79
0
 98
0
  0
LINE
  5
DD
330
17
100
AcDbEntity
  8
DAY_CHINH
100
AcDbLine
 10
78.0
 20
243.0
 30
0.0
 11
81.36
 21
243.0
 31
0.0
  0
LINE
  5
DE
330
17
100
AcDbEntity
  8
DAY_CHINH
100
AcDbLine
 10
82.64
 20
243.0
 30
0.0
 11
86.0
 21
243.0
 31
0.0
  0
LINE
  5
DF
330
17
100
AcDbEntity
  8
DAY_CHINH
100
AcDbLine
 10
81.36
 20
243.0
 30
0.0
 11
82.64
 21
245.6
 31
0.0
  0
LINE
  5
E0
330
17
100
AcDbEntity
  8
DAY_CHINH
100
AcDbLine
 10
86.0
 20
243.0
 30
0.0
 11
162.0
 21
243.0
 31
0.0
  0
TEXT
  5
E1
330
17
100
AcDbEntity
  8
GHI_CHU
100
AcDbText
 10
82.0
 20
246.2
 30
0.0
 40
2.2
  1
SF1
  7
VNB
 72
1
 11
82.0
 21
246.2
 31
0.0
100
AcDbText
 73
2
  0
TEXT
  5
E2
330
17
100
AcDbEntity
  8
GHI_CHU
100
AcDbText
 10
112.0
 20
239.5
 30
0.0
 40
2.0
  1
BÁO LỖI BIẾN TẦN (VFD)
  7
VN
 11
112.0
 21
239.5
 31
0.0
100
AcDbText
 73
2
  0
TEXT
  5
E3
330
17
100
AcDbEntity
  8
PLC
100
AcDbText
 10
156.0
 20
244.8
 30
0.0
 40
2.0
  1
I0.1
  7
VN
 72
2
 11
156.0
 21
244.8
 31
0.0
100
AcDbText
 73
2
  0
LINE
  5
E4
330
17
100
AcDbEntity
  8
DAY_CHINH
100
AcDbLine
 10
72.0
 20
232.0
 30
0.0
 11
78.0
 21
232.0
 31
0.0
  0
HATCH
  5
E5
330
17
100
AcDbEntity
  8
DAY_CHINH
 62
7
100
AcDbHatch
 10
0.0
 20
0.0
 30
0.0
210
0.0
220
0.0
230
1.0
  2
SOLID
 70
0
 71
0
 91
1
 92
3
 72
0
 73
1
 93
12
 10
72.55
 20
232.0
 10
72.47631397208144
 20
232.275
 10
72.275
 20
232.47631397208144
 10
72.0
 20
232.55
 10
71.725
 20
232.47631397208144
 10
71.52368602791856
 20
232.275
 10
71.45
 20
232.0
 10
71.52368602791856
 20
231.725
 10
71.725
 20
231.52368602791856
 10
72.0
 20
231.45
 10
72.275
 20
231.52368602791856
 10
72.47631397208144
 20
231.725
 97
0
 75
1
 76
1
 52
0.0
 41
1.0
 77
0
 78
1
 53
45.0
 43
0.0
 44
0.0
 45
-0.0883883476
 46
0.0883883476
 79
0
 98
0
  0
HATCH
  5
E6
330
17
100
AcDbEntity
  8
DAY_CHINH
 62
7
100
AcDbHatch
 10
0.0
 20
0.0
 30
0.0
210
0.0
220
0.0
230
1.0
  2
SOLID
 70
0
 71
0
 91
1
 92
3
 72
0
 73
1
 93
12
 10
78.45
 20
232.0
 10
78.38971143170299
 20
232.225
 10
78.225
 20
232.389711431703
 10
78.0
 20
232.45
 10
77.775
 20
232.389711431703
 10
77.61028856829701
 20
232.225
 10
77.55
 20
232.0
 10
77.61028856829701
 20
231.775
 10
77.775
 20
231.610288568297
 10
78.0
 20
231.55
 10
78.225
 20
231.610288568297
 10
78.38971143170299
 20
231.775
 97
0
 75
1
 76
1
 52
0.0
 41
1.0
 77
0
 78
1
 53
45.0
 43
0.0
 44
0.0
 45
-0.0883883476
 46
0.0883883476
 79
0
 98
0
  0
HATCH
  5
E7
330
17
100
AcDbEntity
  8
DAY_CHINH
 62
7
100
AcDbHatch
 10
0.0
 20
0.0
 30
0.0
210
0.0
220
0.0
230
1.0
  2
SOLID
 70
0
 71
0
 91
1
 92
3
 72
0
 73
1
 93
12
 10
86.45
 20
232.0
 10
86.38971143170299
 20
232.225
 10
86.225
 20
232.389711431703
 10
86.0
 20
232.45
 10
85.775
 20
232.389711431703
 10
85.61028856829701
 20
232.225
 10
85.55
 20
232.0
 10
85.61028856829701
 20
231.775
 10
85.775
 20
231.610288568297
 10
86.0
 20
231.55
 10
86.225
 20
231.610288568297
 10
86.38971143170299
 20
231.775
 97
0
 75
1
 76
1
 52
0.0
 41
1.0
 77
0
 78
1
 53
45.0
 43
0.0
 44
0.0
 45
-0.0883883476
 46
0.0883883476
 79
0
 98
0
  0
LINE
  5
E8
330
17
100
AcDbEntity
  8
DAY_CHINH
100
AcDbLine
 10
78.0
 20
232.0
 30
0.0
 11
81.36
 21
232.0
 31
0.0
  0
LINE
  5
E9
330
17
100
AcDbEntity
  8
DAY_CHINH
100
AcDbLine
 10
82.64
 20
232.0
 30
0.0
 11
86.0
 21
232.0
 31
0.0
  0
LINE
  5
EA
330
17
100
AcDbEntity
  8
DAY_CHINH
100
AcDbLine
 10
81.36
 20
232.0
 30
0.0
 11
82.64
 21
234.6
 31
0.0
  0
LINE
  5
EB
330
17
100
AcDbEntity
  8
DAY_CHINH
100
AcDbLine
 10
86.0
 20
232.0
 30
0.0
 11
162.0
 21
232.0
 31
0.0
  0
TEXT
  5
EC
330
17
100
AcDbEntity
  8
GHI_CHU
100
AcDbText
 10
82.0
 20
235.2
 30
0.0
 40
2.2
  1
SE1
  7
VNB
 72
1
 11
82.0
 21
235.2
 31
0.0
100
AcDbText
 73
2
  0
TEXT
  5
ED
330
17
100
AcDbEntity
  8
GHI_CHU
100
AcDbText
 10
112.0
 20
228.5
 30
0.0
 40
2.0
  1
TỐC ĐỘ ROTOR (ENCODER)
  7
VN
 11
112.0
 21
228.5
 31
0.0
100
AcDbText
 73
2
  0
TEXT
  5
EE
330
17
100
AcDbEntity
  8
PLC
100
AcDbText
 10
156.0
 20
233.8
 30
0.0
 40
2.0
  1
I0.2
  7
VN
 72
2
 11
156.0
 21
233.8
 31
0.0
100
AcDbText
 73
2
  0
LINE
  5
EF
330
17
100
AcDbEntity
  8
DAY_CHINH
100
AcDbLine
 10
72.0
 20
221.0
 30
0.0
 11
78.0
 21
221.0
 31
0.0
  0
HATCH
  5
F0
330
17
100
AcDbEntity
  8
DAY_CHINH
 62
7
100
AcDbHatch
 10
0.0
 20
0.0
 30
0.0
210
0.0
220
0.0
230
1.0
  2
SOLID
 70
0
 71
0
 91
1
 92
3
 72
0
 73
1
 93
12
 10
72.55
 20
221.0
 10
72.47631397208144
 20
221.275
 10
72.275
 20
221.47631397208144
 10
72.0
 20
221.55
 10
71.725
 20
221.47631397208144
 10
71.52368602791856
 20
221.275
 10
71.45
 20
221.0
 10
71.52368602791856
 20
220.725
 10
71.725
 20
220.52368602791856
 10
72.0
 20
220.45
 10
72.275
 20
220.52368602791856
 10
72.47631397208144
 20
220.725
 97
0
 75
1
 76
1
 52
0.0
 41
1.0
 77
0
 78
1
 53
45.0
 43
0.0
 44
0.0
 45
-0.0883883476
 46
0.0883883476
 79
0
 98
0
  0
HATCH
  5
F1
330
17
100
AcDbEntity
  8
DAY_CHINH
 62
7
100
AcDbHatch
 10
0.0
 20
0.0
 30
0.0
210
0.0
220
0.0
230
1.0
  2
SOLID
 70
0
 71
0
 91
1
 92
3
 72
0
 73
1
 93
12
 10
78.45
 20
221.0
 10
78.38971143170299
 20
221.225
 10
78.225
 20
221.389711431703
 10
78.0
 20
221.45
 10
77.775
 20
221.389711431703
 10
77.61028856829701
 20
221.225
 10
77.55
 20
221.0
 10
77.61028856829701
 20
220.775
 10
77.775
 20
220.610288568297
 10
78.0
 20
220.55
 10
78.225
 20
220.610288568297
 10
78.38971143170299
 20
220.775
 97
0
 75
1
 76
1
 52
0.0
 41
1.0
 77
0
 78
1
 53
45.0
 43
0.0
 44
0.0
 45
-0.0883883476
 46
0.0883883476
 79
0
 98
0
  0
HATCH
  5
F2
330
17
100
AcDbEntity
  8
DAY_CHINH
 62
7
100
AcDbHatch
 10
0.0
 20
0.0
 30
0.0
210
0.0
220
0.0
230
1.0
  2
SOLID
 70
0
 71
0
 91
1
 92
3
 72
0
 73
1
 93
12
 10
86.45
 20
221.0
 10
86.38971143170299
 20
221.225
 10
86.225
 20
221.389711431703
 10
86.0
 20
221.45
 10
85.775
 20
221.389711431703
 10
85.61028856829701
 20
221.225
 10
85.55
 20
221.0
 10
85.61028856829701
 20
220.775
 10
85.775
 20
220.610288568297
 10
86.0
 20
220.55
 10
86.225
 20
220.610288568297
 10
86.38971143170299
 20
220.775
 97
0
 75
1
 76
1
 52
0.0
 41
1.0
 77
0
 78
1
 53
45.0
 43
0.0
 44
0.0
 45
-0.0883883476
 46
0.0883883476
 79
0
 98
0
  0
LINE
  5
F3
330
17
100
AcDbEntity
  8
DAY_CHINH
100
AcDbLine
 10
78.0
 20
221.0
 30
0.0
 11
81.36
 21
221.0
 31
0.0
  0
LINE
  5
F4
330
17
100
AcDbEntity
  8
DAY_CHINH
100
AcDbLine
 10
82.64
 20
221.0
 30
0.0
 11
86.0
 21
221.0
 31
0.0
  0
LINE
  5
F5
330
17
100
AcDbEntity
  8
DAY_CHINH
100
AcDbLine
 10
81.36
 20
221.0
 30
0.0
 11
82.64
 21
223.6
 31
0.0
  0
LINE
  5
F6
330
17
100
AcDbEntity
  8
DAY_CHINH
100
AcDbLine
 10
86.0
 20
221.0
 30
0.0
 11
162.0
 21
221.0
 31
0.0
  0
TEXT
  5
F7
330
17
100
AcDbEntity
  8
GHI_CHU
100
AcDbText
 10
82.0
 20
224.2
 30
0.0
 40
2.2
  1
SL1
  7
VNB
 72
1
 11
82.0
 21
224.2
 31
0.0
100
AcDbText
 73
2
  0
TEXT
  5
F8
330
17
100
AcDbEntity
  8
GHI_CHU
100
AcDbText
 10
112.0
 20
217.5
 30
0.0
 40
2.0
  1
LIÊN KẾT TRẠM (INTERLOCK)
  7
VN
 11
112.0
 21
217.5
 31
0.0
100
AcDbText
 73
2
  0
TEXT
  5
F9
330
17
100
AcDbEntity
  8
PLC
100
AcDbText
 10
156.0
 20
222.8
 30
0.0
 40
2.0
  1
I0.3
  7
VN
 72
2
 11
156.0
 21
222.8
 31
0.0
100
AcDbText
 73
2
  0
LINE
  5
FA
330
17
100
AcDbEntity
  8
DAY_CHINH
100
AcDbLine
 10
72.0
 20
210.0
 30
0.0
 11
78.0
 21
210.0
 31
0.0
  0
HATCH
  5
FB
330
17
100
AcDbEntity
  8
DAY_CHINH
 62
7
100
AcDbHatch
 10
0.0
 20
0.0
 30
0.0
210
0.0
220
0.0
230
1.0
  2
SOLID
 70
0
 71
0
 91
1
 92
3
 72
0
 73
1
 93
12
 10
72.55
 20
210.0
 10
72.47631397208144
 20
210.275
 10
72.275
 20
210.47631397208144
 10
72.0
 20
210.55
 10
71.725
 20
210.47631397208144
 10
71.52368602791856
 20
210.275
 10
71.45
 20
210.0
 10
71.52368602791856
 20
209.725
 10
71.725
 20
209.52368602791856
 10
72.0
 20
209.45
 10
72.275
 20
209.52368602791856
 10
72.47631397208144
 20
209.725
 97
0
 75
1
 76
1
 52
0.0
 41
1.0
 77
0
 78
1
 53
45.0
 43
0.0
 44
0.0
 45
-0.0883883476
 46
0.0883883476
 79
0
 98
0
  0
HATCH
  5
FC
330
17
100
AcDbEntity
  8
DAY_CHINH
 62
7
100
AcDbHatch
 10
0.0
 20
0.0
 30
0.0
210
0.0
220
0.0
230
1.0
  2
SOLID
 70
0
 71
0
 91
1
 92
3
 72
0
 73
1
 93
12
 10
78.45
 20
210.0
 10
78.38971143170299
 20
210.225
 10
78.225
 20
210.389711431703
 10
78.0
 20
210.45
 10
77.775
 20
210.389711431703
 10
77.61028856829701
 20
210.225
 10
77.55
 20
210.0
 10
77.61028856829701
 20
209.775
 10
77.775
 20
209.610288568297
 10
78.0
 20
209.55
 10
78.225
 20
209.610288568297
 10
78.38971143170299
 20
209.775
 97
0
 75
1
 76
1
 52
0.0
 41
1.0
 77
0
 78
1
 53
45.0
 43
0.0
 44
0.0
 45
-0.0883883476
 46
0.0883883476
 79
0
 98
0
  0
HATCH
  5
FD
330
17
100
AcDbEntity
  8
DAY_CHINH
 62
7
100
AcDbHatch
 10
0.0
 20
0.0
 30
0.0
210
0.0
220
0.0
230
1.0
  2
SOLID
 70
0
 71
0
 91
1
 92
3
 72
0
 73
1
 93
12
 10
86.45
 20
210.0
 10
86.38971143170299
 20
210.225
 10
86.225
 20
210.389711431703
 10
86.0
 20
210.45
 10
85.775
 20
210.389711431703
 10
85.61028856829701
 20
210.225
 10
85.55
 20
210.0
 10
85.61028856829701
 20
209.775
 10
85.775
 20
209.610288568297
 10
86.0
 20
209.55
 10
86.225
 20
209.610288568297
 10
86.38971143170299
 20
209.775
 97
0
 75
1
 76
1
 52
0.0
 41
1.0
 77
0
 78
1
 53
45.0
 43
0.0
 44
0.0
 45
-0.0883883476
 46
0.0883883476
 79
0
 98
0
  0
LINE
  5
FE
330
17
100
AcDbEntity
  8
DAY_CHINH
100
AcDbLine
 10
78.0
 20
210.0
 30
0.0
 11
81.36
 21
210.0
 31
0.0
  0
LINE
  5
FF
330
17
100
AcDbEntity
  8
DAY_CHINH
100
AcDbLine
 10
82.64
 20
210.0
 30
0.0
 11
86.0
 21
210.0
 31
0.0
  0
LINE
  5
100
330
17
100
AcDbEntity
  8
DAY_CHINH
100
AcDbLine
 10
81.36
 20
210.0
 30
0.0
 11
82.64
 21
212.6
 31
0.0
  0
LINE
  5
101
330
17
100
AcDbEntity
  8
DAY_CHINH
100
AcDbLine
 10
86.0
 20
210.0
 30
0.0
 11
162.0
 21
210.0
 31
0.0
  0
TEXT
  5
102
330
17
100
AcDbEntity
  8
GHI_CHU
100
AcDbText
 10
82.0
 20
213.2
 30
0.0
 40
2.2
  1
SB2
  7
VNB
 72
1
 11
82.0
 21
213.2
 31
0.0
100
AcDbText
 73
2
  0
TEXT
  5
103
330
17
100
AcDbEntity
  8
GHI_CHU
100
AcDbText
 10
112.0
 20
206.5
 30
0.0
 40
2.0
  1
HÃM MÁY PHÁT (BRAKE)
  7
VN
 11
112.0
 21
206.5
 31
0.0
100
AcDbText
 73
2
  0
TEXT
  5
104
330
17
100
AcDbEntity
  8
PLC
100
AcDbText
 10
156.0
 20
211.8
 30
0.0
 40
2.0
  1
I0.4
  7
VN
 72
2
 11
156.0
 21
211.8
 31
0.0
100
AcDbText
 73
2
  0
TEXT
  5
105
330
17
100
AcDbEntity
  8
AN_TOAN
100
AcDbText
 10
78.0
 20
196.0
 30
0.0
 40
2.2
  1
MẠCH AN TOÀN: DỪNG KHẨN E-STOP (2 KÊNH)
  7
VNB
 11
78.0
 21
196.0
 31
0.0
100
AcDbText
 73
2
  0
LINE
  5
106
330
17
100
AcDbEntity
  8
AN_TOAN
100
AcDbLine
 10
72.0
 20
186.0
 30
0.0
 11
78.0
 21
186.0
 31
0.0
  0
HATCH
  5
107
330
17
100
AcDbEntity
  8
AN_TOAN
 62
7
100
AcDbHatch
 10
0.0
 20
0.0
 30
0.0
210
0.0
220
0.0
230
1.0
  2
SOLID
 70
0
 71
0
 91
1
 92
3
 72
0
 73
1
 93
12
 10
72.55
 20
186.0
 10
72.47631397208144
 20
186.275
 10
72.275
 20
186.47631397208144
 10
72.0
 20
186.55
 10
71.725
 20
186.47631397208144
 10
71.52368602791856
 20
186.275
 10
71.45
 20
186.0
 10
71.52368602791856
 20
185.725
 10
71.725
 20
185.52368602791856
 10
72.0
 20
185.45
 10
72.275
 20
185.52368602791856
 10
72.47631397208144
 20
185.725
 97
0
 75
1
 76
1
 52
0.0
 41
1.0
 77
0
 78
1
 53
45.0
 43
0.0
 44
0.0
 45
-0.0883883476
 46
0.0883883476
 79
0
 98
0
  0
HATCH
  5
108
330
17
100
AcDbEntity
  8
AN_TOAN
 62
7
100
AcDbHatch
 10
0.0
 20
0.0
 30
0.0
210
0.0
220
0.0
230
1.0
  2
SOLID
 70
0
 71
0
 91
1
 92
3
 72
0
 73
1
 93
12
 10
78.45
 20
186.0
 10
78.38971143170299
 20
186.225
 10
78.225
 20
186.389711431703
 10
78.0
 20
186.45
 10
77.775
 20
186.389711431703
 10
77.61028856829701
 20
186.225
 10
77.55
 20
186.0
 10
77.61028856829701
 20
185.775
 10
77.775
 20
185.610288568297
 10
78.0
 20
185.55
 10
78.225
 20
185.610288568297
 10
78.38971143170299
 20
185.775
 97
0
 75
1
 76
1
 52
0.0
 41
1.0
 77
0
 78
1
 53
45.0
 43
0.0
 44
0.0
 45
-0.0883883476
 46
0.0883883476
 79
0
 98
0
  0
HATCH
  5
109
330
17
100
AcDbEntity
  8
AN_TOAN
 62
7
100
AcDbHatch
 10
0.0
 20
0.0
 30
0.0
210
0.0
220
0.0
230
1.0
  2
SOLID
 70
0
 71
0
 91
1
 92
3
 72
0
 73
1
 93
12
 10
86.45
 20
186.0
 10
86.38971143170299
 20
186.225
 10
86.225
 20
186.389711431703
 10
86.0
 20
186.45
 10
85.775
 20
186.389711431703
 10
85.61028856829701
 20
186.225
 10
85.55
 20
186.0
 10
85.61028856829701
 20
185.775
 10
85.775
 20
185.610288568297
 10
86.0
 20
185.55
 10
86.225
 20
185.610288568297
 10
86.38971143170299
 20
185.775
 97
0
 75
1
 76
1
 52
0.0
 41
1.0
 77
0
 78
1
 53
45.0
 43
0.0
 44
0.0
 45
-0.0883883476
 46
0.0883883476
 79
0
 98
0
  0
LINE
  5
10A
330
17
100
AcDbEntity
  8
AN_TOAN
100
AcDbLine
 10
78.0
 20
186.0
 30
0.0
 11
81.36
 21
186.0
 31
0.0
  0
LINE
  5
10B
330
17
100
AcDbEntity
  8
AN_TOAN
100
AcDbLine
 10
82.64
 20
186.0
 30
0.0
 11
86.0
 21
186.0
 31
0.0
  0
LINE
  5
10C
330
17
100
AcDbEntity
  8
AN_TOAN
100
AcDbLine
 10
81.36
 20
186.0
 30
0.0
 11
82.64
 21
188.6
 31
0.0
  0
LINE
  5
10D
330
17
100
AcDbEntity
  8
AN_TOAN
100
AcDbLine
 10
82.64
 20
187.6
 30
0.0
 11
82.64
 21
184.4
 31
0.0
  0
LINE
  5
10E
330
17
100
AcDbEntity
  8
AN_TOAN
100
AcDbLine
 10
86.0
 20
186.0
 30
0.0
 11
162.0
 21
186.0
 31
0.0
  0
TEXT
  5
10F
330
17
100
AcDbEntity
  8
AN_TOAN
100
AcDbText
 10
82.0
 20
189.2
 30
0.0
 40
2.2
  1
SB0-1
  7
VNB
 72
1
 11
82.0
 21
189.2
 31
0.0
100
AcDbText
 73
2
  0
TEXT
  5
110
330
17
100
AcDbEntity
  8
AN_TOAN
100
AcDbText
 10
112.0
 20
182.5
 30
0.0
 40
2.0
  1
NÚT DỪNG KHẨN – KÊNH 1
  7
VN
 11
112.0
 21
182.5
 31
0.0
100
AcDbText
 73
2
  0
TEXT
  5
111
330
17
100
AcDbEntity
  8
PLC
100
AcDbText
 10
156.0
 20
187.8
 30
0.0
 40
2.0
  1
F-DI 0.0
  7
VN
 72
2
 11
156.0
 21
187.8
 31
0.0
100
AcDbText
 73
2
  0
LINE
  5
112
330
17
100
AcDbEntity
  8
AN_TOAN
100
AcDbLine
 10
72.0
 20
175.0
 30
0.0
 11
78.0
 21
175.0
 31
0.0
  0
HATCH
  5
113
330
17
100
AcDbEntity
  8
AN_TOAN
 62
7
100
AcDbHatch
 10
0.0
 20
0.0
 30
0.0
210
0.0
220
0.0
230
1.0
  2
SOLID
 70
0
 71
0
 91
1
 92
3
 72
0
 73
1
 93
12
 10
72.55
 20
175.0
 10
72.47631397208144
 20
175.275
 10
72.275
 20
175.47631397208144
 10
72.0
 20
175.55
 10
71.725
 20
175.47631397208144
 10
71.52368602791856
 20
175.275
 10
71.45
 20
175.0
 10
71.52368602791856
 20
174.725
 10
71.725
 20
174.52368602791856
 10
72.0
 20
174.45
 10
72.275
 20
174.52368602791856
 10
72.47631397208144
 20
174.725
 97
0
 75
1
 76
1
 52
0.0
 41
1.0
 77
0
 78
1
 53
45.0
 43
0.0
 44
0.0
 45
-0.0883883476
 46
0.0883883476
 79
0
 98
0
  0
HATCH
  5
114
330
17
100
AcDbEntity
  8
AN_TOAN
 62
7
100
AcDbHatch
 10
0.0
 20
0.0
 30
0.0
210
0.0
220
0.0
230
1.0
  2
SOLID
 70
0
 71
0
 91
1
 92
3
 72
0
 73
1
 93
12
 10
78.45
 20
175.0
 10
78.38971143170299
 20
175.225
 10
78.225
 20
175.389711431703
 10
78.0
 20
175.45
 10
77.775
 20
175.389711431703
 10
77.61028856829701
 20
175.225
 10
77.55
 20
175.0
 10
77.61028856829701
 20
174.775
 10
77.775
 20
174.610288568297
 10
78.0
 20
174.55
 10
78.225
 20
174.610288568297
 10
78.38971143170299
 20
174.775
 97
0
 75
1
 76
1
 52
0.0
 41
1.0
 77
0
 78
1
 53
45.0
 43
0.0
 44
0.0
 45
-0.0883883476
 46
0.0883883476
 79
0
 98
0
  0
HATCH
  5
115
330
17
100
AcDbEntity
  8
AN_TOAN
 62
7
100
AcDbHatch
 10
0.0
 20
0.0
 30
0.0
210
0.0
220
0.0
230
1.0
  2
SOLID
 70
0
 71
0
 91
1
 92
3
 72
0
 73
1
 93
12
 10
86.45
 20
175.0
 10
86.38971143170299
 20
175.225
 10
86.225
 20
175.389711431703
 10
86.0
 20
175.45
 10
85.775
 20
175.389711431703
 10
85.61028856829701
 20
175.225
 10
85.55
 20
175.0
 10
85.61028856829701
 20
174.775
 10
85.775
 20
174.610288568297
 10
86.0
 20
174.55
 10
86.225
 20
174.610288568297
 10
86.38971143170299
 20
174.775
 97
0
 75
1
 76
1
 52
0.0
 41
1.0
 77
0
 78
1
 53
45.0
 43
0.0
 44
0.0
 45
-0.0883883476
 46
0.0883883476
 79
0
 98
0
  0
LINE
  5
116
330
17
100
AcDbEntity
  8
AN_TOAN
100
AcDbLine
 10
78.0
 20
175.0
 30
0.0
 11
81.36
 21
175.0
 31
0.0
  0
LINE
  5
117
330
17
100
AcDbEntity
  8
AN_TOAN
100
AcDbLine
 10
82.64
 20
175.0
 30
0.0
 11
86.0
 21
175.0
 31
0.0
  0
LINE
  5
118
330
17
100
AcDbEntity
  8
AN_TOAN
100
AcDbLine
 10
81.36
 20
175.0
 30
0.0
 11
82.64
 21
177.6
 31
0.0
  0
LINE
  5
119
330
17
100
AcDbEntity
  8
AN_TOAN
100
AcDbLine
 10
82.64
 20
176.6
 30
0.0
 11
82.64
 21
173.4
 31
0.0
  0
LINE
  5
11A
330
17
100
AcDbEntity
  8
AN_TOAN
100
AcDbLine
 10
86.0
 20
175.0
 30
0.0
 11
162.0
 21
175.0
 31
0.0
  0
TEXT
  5
11B
330
17
100
AcDbEntity
  8
AN_TOAN
100
AcDbText
 10
82.0
 20
178.2
 30
0.0
 40
2.2
  1
SB0-2
  7
VNB
 72
1
 11
82.0
 21
178.2
 31
0.0
100
AcDbText
 73
2
  0
TEXT
  5
11C
330
17
100
AcDbEntity
  8
AN_TOAN
100
AcDbText
 10
112.0
 20
171.5
 30
0.0
 40
2.0
  1
NÚT DỪNG KHẨN – KÊNH 2
  7
VN
 11
112.0
 21
171.5
 31
0.0
100
AcDbText
 73
2
  0
TEXT
  5
11D
330
17
100
AcDbEntity
  8
PLC
100
AcDbText
 10
156.0
 20
176.8
 30
0.0
 40
2.0
  1
F-DI 0.1
  7
VN
 72
2
 11
156.0
 21
176.8
 31
0.0
100
AcDbText
 73
2
  0
TEXT
  5
11E
330
17
100
AcDbEntity
  8
ANALOG
100
AcDbText
 10
78.0
 20
162.0
 30
0.0
 40
2.2
  1
TÍN HIỆU ANALOG (4–20mA / 0–10V)
  7
VNB
 11
78.0
 21
162.0
 31
0.0
100
AcDbText
 73
2
  0
LWPOLYLINE
  5
11F
330
17
100
AcDbEntity
  8
ANALOG
100
AcDbPolyline
 90
4
 70
1
 10
78.0
 20
134.0
 10
108.0
 20
134.0
 10
108.0
 20
142.0
 10
78.0
 20
142.0
  0
LINE
  5
120
330
17
100
AcDbEntity
  8
ANALOG
100
AcDbLine
 10
72.0
 20
138.0
 30
0.0
 11
78.0
 21
138.0
 31
0.0
  0
HATCH
  5
121
330
17
100
AcDbEntity
  8
ANALOG
 62
7
100
AcDbHatch
 10
0.0
 20
0.0
 30
0.0
210
0.0
220
0.0
230
1.0
  2
SOLID
 70
0
 71
0
 91
1
 92
3
 72
0
 73
1
 93
12
 10
72.55
 20
138.0
 10
72.47631397208144
 20
138.275
 10
72.275
 20
138.47631397208144
 10
72.0
 20
138.55
 10
71.725
 20
138.47631397208144
 10
71.52368602791856
 20
138.275
 10
71.45
 20
138.0
 10
71.52368602791856
 20
137.725
 10
71.725
 20
137.52368602791856
 10
72.0
 20
137.45
 10
72.275
 20
137.52368602791856
 10
72.47631397208144
 20
137.725
 97
0
 75
1
 76
1
 52
0.0
 41
1.0
 77
0
 78
1
 53
45.0
 43
0.0
 44
0.0
 45
-0.0883883476
 46
0.0883883476
 79
0
 98
0
  0
TEXT
  5
122
330
17
100
AcDbEntity
  8
ANALOG
100
AcDbText
 10
93.0
 20
139.6
 30
0.0
 40
2.2
  1
TT-1
  7
VNB
 72
1
 11
93.0
 21
139.6
 31
0.0
100
AcDbText
 73
2
  0
TEXT
  5
123
330
17
100
AcDbEntity
  8
ANALOG
100
AcDbText
 10
93.0
 20
135.8
 30
0.0
 40
1.7
  1
4–20mA
  7
VN
 72
1
 11
93.0
 21
135.8
 31
0.0
100
AcDbText
 73
2
  0
LINE
  5
124
330
17
100
AcDbEntity
  8
ANALOG
100
AcDbLine
 10
108.0
 20
138.0
 30
0.0
 11
162.0
 21
138.0
 31
0.0
  0
TEXT
  5
125
330
17
100
AcDbEntity
  8
ANALOG
100
AcDbText
 10
112.0
 20
134.5
 30
0.0
 40
2.0
  1
NHIỆT ĐỘ DẦU (OIL TEMP)
  7
VN
 11
112.0
 21
134.5
 31
0.0
100
AcDbText
 73
2
  0
TEXT
  5
126
330
17
100
AcDbEntity
  8
PLC
100
AcDbText
 10
156.0
 20
139.8
 30
0.0
 40
2.0
  1
IW64
  7
VN
 72
2
 11
156.0
 21
139.8
 31
0.0
100
AcDbText
 73
2
  0
LWPOLYLINE
  5
127
330
17
100
AcDbEntity
  8
ANALOG
100
AcDbPolyline
 90
4
 70
1
 10
78.0
 20
123.0
 10
108.0
 20
123.0
 10
108.0
 20
131.0
 10
78.0
 20
131.0
  0
LINE
  5
128
330
17
100
AcDbEntity
  8
ANALOG
100
AcDbLine
 10
72.0
 20
127.0
 30
0.0
 11
78.0
 21
127.0
 31
0.0
  0
HATCH
  5
129
330
17
100
AcDbEntity
  8
ANALOG
 62
7
100
AcDbHatch
 10
0.0
 20
0.0
 30
0.0
210
0.0
220
0.0
230
1.0
  2
SOLID
 70
0
 71
0
 91
1
 92
3
 72
0
 73
1
 93
12
 10
72.55
 20
127.0
 10
72.47631397208144
 20
127.275
 10
72.275
 20
127.47631397208144
 10
72.0
 20
127.55
 10
71.725
 20
127.47631397208144
 10
71.52368602791856
 20
127.275
 10
71.45
 20
127.0
 10
71.52368602791856
 20
126.725
 10
71.725
 20
126.52368602791856
 10
72.0
 20
126.45
 10
72.275
 20
126.52368602791856
 10
72.47631397208144
 20
126.725
 97
0
 75
1
 76
1
 52
0.0
 41
1.0
 77
0
 78
1
 53
45.0
 43
0.0
 44
0.0
 45
-0.0883883476
 46
0.0883883476
 79
0
 98
0
  0
TEXT
  5
12A
330
17
100
AcDbEntity
  8
ANALOG
100
AcDbText
 10
93.0
 20
128.6
 30
0.0
 40
2.2
  1
FT-1
  7
VNB
 72
1
 11
93.0
 21
128.6
 31
0.0
100
AcDbText
 73
2
  0
TEXT
  5
12B
330
17
100
AcDbEntity
  8
ANALOG
100
AcDbText
 10
93.0
 20
124.8
 30
0.0
 40
1.7
  1
4–20mA
  7
VN
 72
1
 11
93.0
 21
124.8
 31
0.0
100
AcDbText
 73
2
  0
LINE
  5
12C
330
17
100
AcDbEntity
  8
ANALOG
100
AcDbLine
 10
108.0
 20
127.0
 30
0.0
 11
162.0
 21
127.0
 31
0.0
  0
TEXT
  5
12D
330
17
100
AcDbEntity
  8
ANALOG
100
AcDbText
 10
112.0
 20
123.5
 30
0.0
 40
2.0
  1
LƯU LƯỢNG DẦU (OIL FLOW)
  7
VN
 11
112.0
 21
123.5
 31
0.0
100
AcDbText
 73
2
  0
TEXT
  5
12E
330
17
100
AcDbEntity
  8
PLC
100
AcDbText
 10
156.0
 20
128.8
 30
0.0
 40
2.0
  1
IW66
  7
VN
 72
2
 11
156.0
 21
128.8
 31
0.0
100
AcDbText
 73
2
  0
LWPOLYLINE
  5
12F
330
17
100
AcDbEntity
  8
ANALOG
100
AcDbPolyline
 90
4
 70
1
 10
78.0
 20
112.0
 10
108.0
 20
112.0
 10
108.0
 20
120.0
 10
78.0
 20
120.0
  0
LINE
  5
130
330
17
100
AcDbEntity
  8
ANALOG
100
AcDbLine
 10
72.0
 20
116.0
 30
0.0
 11
78.0
 21
116.0
 31
0.0
  0
HATCH
  5
131
330
17
100
AcDbEntity
  8
ANALOG
 62
7
100
AcDbHatch
 10
0.0
 20
0.0
 30
0.0
210
0.0
220
0.0
230
1.0
  2
SOLID
 70
0
 71
0
 91
1
 92
3
 72
0
 73
1
 93
12
 10
72.55
 20
116.0
 10
72.47631397208144
 20
116.275
 10
72.275
 20
116.47631397208144
 10
72.0
 20
116.55
 10
71.725
 20
116.47631397208144
 10
71.52368602791856
 20
116.275
 10
71.45
 20
116.0
 10
71.52368602791856
 20
115.725
 10
71.725
 20
115.52368602791856
 10
72.0
 20
115.45
 10
72.275
 20
115.52368602791856
 10
72.47631397208144
 20
115.725
 97
0
 75
1
 76
1
 52
0.0
 41
1.0
 77
0
 78
1
 53
45.0
 43
0.0
 44
0.0
 45
-0.0883883476
 46
0.0883883476
 79
0
 98
0
  0
TEXT
  5
132
330
17
100
AcDbEntity
  8
ANALOG
100
AcDbText
 10
93.0
 20
117.6
 30
0.0
 40
2.2
  1
ST-1
  7
VNB
 72
1
 11
93.0
 21
117.6
 31
0.0
100
AcDbText
 73
2
  0
TEXT
  5
133
330
17
100
AcDbEntity
  8
ANALOG
100
AcDbText
 10
93.0
 20
113.8
 30
0.0
 40
1.7
  1
0–10V
  7
VN
 72
1
 11
93.0
 21
113.8
 31
0.0
100
AcDbText
 73
2
  0
LINE
  5
134
330
17
100
AcDbEntity
  8
ANALOG
100
AcDbLine
 10
108.0
 20
116.0
 30
0.0
 11
162.0
 21
116.0
 31
0.0
  0
TEXT
  5
135
330
17
100
AcDbEntity
  8
ANALOG
100
AcDbText
 10
112.0
 20
112.5
 30
0.0
 40
2.0
  1
TỐC ĐỘ ROTOR (SPEED)
  7
VN
 11
112.0
 21
112.5
 31
0.0
100
AcDbText
 73
2
  0
TEXT
  5
136
330
17
100
AcDbEntity
  8
PLC
100
AcDbText
 10
156.0
 20
117.8
 30
0.0
 40
2.0
  1
IW68
  7
VN
 72
2
 11
156.0
 21
117.8
 31
0.0
100
AcDbText
 73
2
  0
TEXT
  5
137
330
17
100
AcDbEntity
  8
ANALOG
 62
8
100
AcDbText
 10
78.0
 20
107.0
 30
0.0
 40
2.0
  1
Chân M (chung) của thẻ AI nối về 0V nguồn, cáp chống nhiễu.
  7
VN
 11
78.0
 21
107.0
 31
0.0
100
AcDbText
 73
2
  0
LWPOLYLINE
  5
138
330
17
100
AcDbEntity
  8
PLC
370
35
100
AcDbPolyline
 90
4
 70
1
 10
162.0
 20
96.0
 10
198.0
 20
96.0
 10
198.0
 20
262.0
 10
162.0
 20
262.0
  0
TEXT
  5
139
330
17
100
AcDbEntity
  8
GHI_CHU
100
AcDbText
 10
162.0
 20
264.5
 30
0.0
 40
2.5
  1
TỦ PLC – RACK 0
  7
VNB
 11
162.0
 21
264.5
 31
0.0
100
AcDbText
 73
2
  0
TEXT
  5
13A
330
17
100
AcDbEntity
  8
PLC
100
AcDbText
 10
180.0
 20
255.6
 30
0.0
 40
2.1
  1
PM 24VDC
  7
VNB
 72
1
 11
180.0
 21
255.6
 31
0.0
100
AcDbText
 73
2
  0
TEXT
  5
13B
330
17
100
AcDbEntity
  8
GHI_CHU
 62
8
100
AcDbText
 10
180.0
 20
252.0
 30
0.0
 40
1.6
  1
NGUỒN PLC
  7
VN
 72
1
 11
180.0
 21
252.0
 31
0.0
100
AcDbText
 73
2
  0
TEXT
  5
13C
330
17
100
AcDbEntity
  8
PLC
100
AcDbText
 10
180.0
 20
226.6
 30
0.0
 40
2.1
  1
DI 16×24VDC
  7
VNB
 72
1
 11
180.0
 21
226.6
 31
0.0
100
AcDbText
 73
2
  0
TEXT
  5
13D
330
17
100
AcDbEntity
  8
GHI_CHU
 62
8
100
AcDbText
 10
180.0
 20
223.0
 30
0.0
 40
1.6
  1
6ES7 521-1BL00
  7
VN
 72
1
 11
180.0
 21
223.0
 31
0.0
100
AcDbText
 73
2
  0
TEXT
  5
13E
330
17
100
AcDbEntity
  8
PLC
100
AcDbText
 10
180.0
 20
189.6
 30
0.0
 40
2.1
  1
CPU 1511F-1 PN
  7
VNB
 72
1
 11
180.0
 21
189.6
 31
0.0
100
AcDbText
 73
2
  0
TEXT
  5
13F
330
17
100
AcDbEntity
  8
GHI_CHU
 62
8
100
AcDbText
 10
180.0
 20
186.0
 30
0.0
 40
1.6
  1
FAIL-SAFE
  7
VN
 72
1
 11
180.0
 21
186.0
 31
0.0
100
AcDbText
 73
2
  0
TEXT
  5
140
330
17
100
AcDbEntity
  8
PLC
100
AcDbText
 10
180.0
 20
161.6
 30
0.0
 40
2.1
  1
F-DI 8×24VDC
  7
VNB
 72
1
 11
180.0
 21
161.6
 31
0.0
100
AcDbText
 73
2
  0
TEXT
  5
141
330
17
100
AcDbEntity
  8
GHI_CHU
 62
8
100
AcDbText
 10
180.0
 20
158.0
 30
0.0
 40
1.6
  1
AN TOÀN (F)
  7
VN
 72
1
 11
180.0
 21
158.0
 31
0.0
100
AcDbText
 73
2
  0
TEXT
  5
142
330
17
100
AcDbEntity
  8
PLC
100
AcDbText
 10
180.0
 20
131.6
 30
0.0
 40
2.1
  1
AI 4×U/I ST
  7
VNB
 72
1
 11
180.0
 21
131.6
 31
0.0
100
AcDbText
 73
2
  0
TEXT
  5
143
330
17
100
AcDbEntity
  8
GHI_CHU
 62
8
100
AcDbText
 10
180.0
 20
128.0
 30
0.0
 40
1.6
  1
6ES7 531-7KF00
  7
VN
 72
1
 11
180.0
 21
128.0
 31
0.0
100
AcDbText
 73
2
  0
TEXT
  5
144
330
17
100
AcDbEntity
  8
PLC
100
AcDbText
 10
180.0
 20
104.0
 30
0.0
 40
2.1
  1
DỰ PHÒNG
  7
VNB
 72
1
 11
180.0
 21
104.0
 31
0.0
100
AcDbText
 73
2
  0
LINE
  5
145
330
17
100
AcDbEntity
  8
PLC
 62
8
370
18
100
AcDbLine
 10
162.0
 20
246.0
 30
0.0
 11
198.0
 21
246.0
 31
0.0
  0
LINE
  5
146
330
17
100
AcDbEntity
  8
PLC
 62
8
370
18
100
AcDbLine
 10
162.0
 20
204.0
 30
0.0
 11
198.0
 21
204.0
 31
0.0
  0
LINE
  5
147
330
17
100
AcDbEntity
  8
PLC
 62
8
370
18
100
AcDbLine
 10
162.0
 20
172.0
 30
0.0
 11
198.0
 21
172.0
 31
0.0
  0
LINE
  5
148
330
17
100
AcDbEntity
  8
PLC
 62
8
370
18
100
AcDbLine
 10
162.0
 20
148.0
 30
0.0
 11
198.0
 21
148.0
 31
0.0
  0
LINE
  5
149
330
17
100
AcDbEntity
  8
PLC
 62
8
370
18
100
AcDbLine
 10
162.0
 20
112.0
 30
0.0
 11
198.0
 21
112.0
 31
0.0
  0
LINE
  5
14A
330
17
100
AcDbEntity
  8
DAY_CHINH
100
AcDbLine
 10
180.0
 20
96.0
 30
0.0
 11
180.0
 21
92.5
 31
0.0
  0
LINE
  5
14B
330
17
100
AcDbEntity
  8
DAY_CHINH
100
AcDbLine
 10
177.0
 20
92.0
 30
0.0
 11
183.0
 21
92.0
 31
0.0
  0
LINE
  5
14C
330
17
100
AcDbEntity
  8
DAY_CHINH
100
AcDbLine
 10
178.02
 20
90.6
 30
0.0
 11
181.98
 21
90.6
 31
0.0
  0
LINE
  5
14D
330
17
100
AcDbEntity
  8
DAY_CHINH
100
AcDbLine
 10
179.01
 20
89.2
 30
0.0
 11
180.99
 21
89.2
 31
0.0
  0
TEXT
  5
14E
330
17
100
AcDbEntity
  8
GHI_CHU
 62
8
100
AcDbText
 10
183.0
 20
93.5
 30
0.0
 40
2.0
  1
PE
  7
VN
 11
183.0
 21
93.5
 31
0.0
100
AcDbText
 73
2
  0
LWPOLYLINE
  5
14F
330
17
100
AcDbEntity
  8
PLC
370
35
100
AcDbPolyline
 90
4
 70
1
 10
246.0
 20
96.0
 10
282.0
 20
96.0
 10
282.0
 20
262.0
 10
246.0
 20
262.0
  0
TEXT
  5
150
330
17
100
AcDbEntity
  8
GHI_CHU
100
AcDbText
 10
246.0
 20
264.5
 30
0.0
 40
2.5
  1
RACK 1 – MỞ RỘNG
  7
VNB
 11
246.0
 21
264.5
 31
0.0
100
AcDbText
 73
2
  0
TEXT
  5
151
330
17
100
AcDbEntity
  8
PLC
100
AcDbText
 10
264.0
 20
223.6
 30
0.0
 40
2.1
  1
DQ 16×24VDC
  7
VNB
 72
1
 11
264.0
 21
223.6
 31
0.0
100
AcDbText
 73
2
  0
TEXT
  5
152
330
17
100
AcDbEntity
  8
GHI_CHU
 62
8
100
AcDbText
 10
264.0
 20
220.0
 30
0.0
 40
1.6
  1
6ES7 522-1BL01
  7
VN
 72
1
 11
264.0
 21
220.0
 31
0.0
100
AcDbText
 73
2
  0
TEXT
  5
153
330
17
100
AcDbEntity
  8
PLC
100
AcDbText
 10
264.0
 20
156.6
 30
0.0
 40
2.1
  1
AQ 2×U/I ST
  7
VNB
 72
1
 11
264.0
 21
156.6
 31
0.0
100
AcDbText
 73
2
  0
TEXT
  5
154
330
17
100
AcDbEntity
  8
GHI_CHU
 62
8
100
AcDbText
 10
264.0
 20
153.0
 30
0.0
 40
1.6
  1
6ES7 532-5HF00
  7
VN
 72
1
 11
264.0
 21
153.0
 31
0.0
100
AcDbText
 73
2
  0
TEXT
  5
155
330
17
100
AcDbEntity
  8
PLC
100
AcDbText
 10
264.0
 20
112.0
 30
0.0
 40
2.1
  1
DỰ PHÒNG
  7
VNB
 72
1
 11
264.0
 21
112.0
 31
0.0
100
AcDbText
 73
2
  0
LINE
  5
156
330
17
100
AcDbEntity
  8
PLC
 62
8
370
18
100
AcDbLine
 10
246.0
 20
182.0
 30
0.0
 11
282.0
 21
182.0
 31
0.0
  0
LINE
  5
157
330
17
100
AcDbEntity
  8
PLC
 62
8
370
18
100
AcDbLine
 10
246.0
 20
128.0
 30
0.0
 11
282.0
 21
128.0
 31
0.0
  0
LINE
  5
158
330
17
100
AcDbEntity
  8
PLC
100
AcDbLine
 10
198.0
 20
252.0
 30
0.0
 11
246.0
 21
252.0
 31
0.0
  0
HATCH
  5
159
330
17
100
AcDbEntity
  8
PLC
 62
7
100
AcDbHatch
 10
0.0
 20
0.0
 30
0.0
210
0.0
220
0.0
230
1.0
  2
SOLID
 70
0
 71
0
 91
1
 92
3
 72
0
 73
1
 93
12
 10
198.5
 20
252.0
 10
198.4330127018922
 20
252.25
 10
198.25
 20
252.4330127018922
 10
198.0
 20
252.5
 10
197.75
 20
252.4330127018922
 10
197.5669872981078
 20
252.25
 10
197.5
 20
252.0
 10
197.5669872981078
 20
251.75
 10
197.75
 20
251.5669872981078
 10
198.0
 20
251.5
 10
198.25
 20
251.5669872981078
 10
198.4330127018922
 20
251.75
 97
0
 75
1
 76
1
 52
0.0
 41
1.0
 77
0
 78
1
 53
45.0
 43
0.0
 44
0.0
 45
-0.0883883476
 46
0.0883883476
 79
0
 98
0
  0
HATCH
  5
15A
330
17
100
AcDbEntity
  8
PLC
 62
7
100
AcDbHatch
 10
0.0
 20
0.0
 30
0.0
210
0.0
220
0.0
230
1.0
  2
SOLID
 70
0
 71
0
 91
1
 92
3
 72
0
 73
1
 93
12
 10
246.5
 20
252.0
 10
246.4330127018922
 20
252.25
 10
246.25
 20
252.4330127018922
 10
246.0
 20
252.5
 10
245.75
 20
252.4330127018922
 10
245.5669872981078
 20
252.25
 10
245.5
 20
252.0
 10
245.5669872981078
 20
251.75
 10
245.75
 20
251.5669872981078
 10
246.0
 20
251.5
 10
246.25
 20
251.5669872981078
 10
246.4330127018922
 20
251.75
 97
0
 75
1
 76
1
 52
0.0
 41
1.0
 77
0
 78
1
 53
45.0
 43
0.0
 44
0.0
 45
-0.0883883476
 46
0.0883883476
 79
0
 98
0
  0
LINE
  5
15B
330
17
100
AcDbEntity
  8
PLC
100
AcDbLine
 10
198.0
 20
256.0
 30
0.0
 11
246.0
 21
256.0
 31
0.0
  0
HATCH
  5
15C
330
17
100
AcDbEntity
  8
PLC
 62
7
100
AcDbHatch
 10
0.0
 20
0.0
 30
0.0
210
0.0
220
0.0
230
1.0
  2
SOLID
 70
0
 71
0
 91
1
 92
3
 72
0
 73
1
 93
12
 10
198.5
 20
256.0
 10
198.4330127018922
 20
256.25
 10
198.25
 20
256.4330127018922
 10
198.0
 20
256.5
 10
197.75
 20
256.4330127018922
 10
197.5669872981078
 20
256.25
 10
197.5
 20
256.0
 10
197.5669872981078
 20
255.75
 10
197.75
 20
255.5669872981078
 10
198.0
 20
255.5
 10
198.25
 20
255.5669872981078
 10
198.4330127018922
 20
255.75
 97
0
 75
1
 76
1
 52
0.0
 41
1.0
 77
0
 78
1
 53
45.0
 43
0.0
 44
0.0
 45
-0.0883883476
 46
0.0883883476
 79
0
 98
0
  0
HATCH
  5
15D
330
17
100
AcDbEntity
  8
PLC
 62
7
100
AcDbHatch
 10
0.0
 20
0.0
 30
0.0
210
0.0
220
0.0
230
1.0
  2
SOLID
 70
0
 71
0
 91
1
 92
3
 72
0
 73
1
 93
12
 10
246.5
 20
256.0
 10
246.4330127018922
 20
256.25
 10
246.25
 20
256.4330127018922
 10
246.0
 20
256.5
 10
245.75
 20
256.4330127018922
 10
245.5669872981078
 20
256.25
 10
245.5
 20
256.0
 10
245.5669872981078
 20
255.75
 10
245.75
 20
255.5669872981078
 10
246.0
 20
255.5
 10
246.25
 20
255.5669872981078
 10
246.4330127018922
 20
255.75
 97
0
 75
1
 76
1
 52
0.0
 41
1.0
 77
0
 78
1
 53
45.0
 43
0.0
 44
0.0
 45
-0.0883883476
 46
0.0883883476
 79
0
 98
0
  0
TEXT
  5
15E
330
17
100
AcDbEntity
  8
GHI_CHU
 62
8
100
AcDbText
 10
222.0
 20
259.5
 30
0.0
 40
1.9
  1
BUS PLC (PROFINET IO)
  7
VN
 72
1
 11
222.0
 21
259.5
 31
0.0
100
AcDbText
 73
2
  0
LINE
  5
15F
330
17
100
AcDbEntity
  8
DAY_CHINH
370
60
100
AcDbLine
 10
398.0
 20
258.0
 30
0.0
 11
398.0
 21
57.0
 31
0.0
  0
LINE
  5
160
330
17
100
AcDbEntity
  8
DAY_CHINH
370
60
100
AcDbLine
 10
398.0
 20
57.0
 30
0.0
 11
68.0
 21
57.0
 31
0.0
  0
TEXT
  5
161
330
17
100
AcDbEntity
  8
GHI_CHU
100
AcDbText
 10
398.0
 20
261.0
 30
0.0
 40
2.2
  1
0V
  7
VN
 72
1
 11
398.0
 21
261.0
 31
0.0
100
AcDbText
 73
2
  0
LINE
  5
162
330
17
100
AcDbEntity
  8
DAY_CHINH
100
AcDbLine
 10
282.0
 20
254.0
 30
0.0
 11
292.0
 21
254.0
 31
0.0
  0
HATCH
  5
163
330
17
100
AcDbEntity
  8
DAY_CHINH
 62
7
100
AcDbHatch
 10
0.0
 20
0.0
 30
0.0
210
0.0
220
0.0
230
1.0
  2
SOLID
 70
0
 71
0
 91
1
 92
3
 72
0
 73
1
 93
12
 10
282.45
 20
254.0
 10
282.389711431703
 20
254.225
 10
282.225
 20
254.389711431703
 10
282.0
 20
254.45
 10
281.775
 20
254.389711431703
 10
281.610288568297
 20
254.225
 10
281.55
 20
254.0
 10
281.610288568297
 20
253.775
 10
281.775
 20
253.610288568297
 10
282.0
 20
253.55
 10
282.225
 20
253.610288568297
 10
282.389711431703
 20
253.775
 97
0
 75
1
 76
1
 52
0.0
 41
1.0
 77
0
 78
1
 53
45.0
 43
0.0
 44
0.0
 45
-0.0883883476
 46
0.0883883476
 79
0
 98
0
  0
TEXT
  5
164
330
17
100
AcDbEntity
  8
PLC
100
AcDbText
 10
287.0
 20
255.8
 30
0.0
 40
2.0
  1
Q0.0
  7
VN
 72
1
 11
287.0
 21
255.8
 31
0.0
100
AcDbText
 73
2
  0
LWPOLYLINE
  5
165
330
17
100
AcDbEntity
  8
THIET_BI
100
AcDbPolyline
 90
4
 70
1
 10
292.0
 20
251.5
 10
302.0
 20
251.5
 10
302.0
 20
256.5
 10
292.0
 20
256.5
  0
TEXT
  5
166
330
17
100
AcDbEntity
  8
GHI_CHU
100
AcDbText
 10
297.0
 20
257.8
 30
0.0
 40
2.2
  1
K1
  7
VNB
 72
1
 11
297.0
 21
257.8
 31
0.0
100
AcDbText
 73
2
  0
LINE
  5
167
330
17
100
AcDbEntity
  8
DAY_CHINH
100
AcDbLine
 10
302.0
 20
254.0
 30
0.0
 11
306.0
 21
254.0
 31
0.0
  0
LWPOLYLINE
  5
168
330
17
100
AcDbEntity
  8
THIET_BI
100
AcDbPolyline
 90
4
 70
1
 10
306.0
 20
250.0
 10
352.0
 20
250.0
 10
352.0
 20
258.0
 10
306.0
 20
258.0
  0
TEXT
  5
169
330
17
100
AcDbEntity
  8
GHI_CHU
100
AcDbText
 10
329.0
 20
254.0
 30
0.0
 40
2.0
  1
CHUÔNG BÁO ĐỘNG (HOOTER)
  7
VN
 72
1
 11
329.0
 21
254.0
 31
0.0
100
AcDbText
 73
2
  0
LINE
  5
16A
330
17
100
AcDbEntity
  8
DAY_CHINH
100
AcDbLine
 10
352.0
 20
254.0
 30
0.0
 11
398.0
 21
254.0
 31
0.0
  0
HATCH
  5
16B
330
17
100
AcDbEntity
  8
DAY_CHINH
 62
7
100
AcDbHatch
 10
0.0
 20
0.0
 30
0.0
210
0.0
220
0.0
230
1.0
  2
SOLID
 70
0
 71
0
 91
1
 92
3
 72
0
 73
1
 93
12
 10
398.55
 20
254.0
 10
398.4763139720814
 20
254.275
 10
398.275
 20
254.47631397208144
 10
398.0
 20
254.55
 10
397.725
 20
254.47631397208144
 10
397.5236860279186
 20
254.275
 10
397.45
 20
254.0
 10
397.5236860279186
 20
253.725
 10
397.725
 20
253.52368602791856
 10
398.0
 20
253.45
 10
398.275
 20
253.52368602791856
 10
398.4763139720814
 20
253.725
 97
0
 75
1
 76
1
 52
0.0
 41
1.0
 77
0
 78
1
 53
45.0
 43
0.0
 44
0.0
 45
-0.0883883476
 46
0.0883883476
 79
0
 98
0
  0
LINE
  5
16C
330
17
100
AcDbEntity
  8
DAY_CHINH
100
AcDbLine
 10
282.0
 20
243.0
 30
0.0
 11
292.0
 21
243.0
 31
0.0
  0
HATCH
  5
16D
330
17
100
AcDbEntity
  8
DAY_CHINH
 62
7
100
AcDbHatch
 10
0.0
 20
0.0
 30
0.0
210
0.0
220
0.0
230
1.0
  2
SOLID
 70
0
 71
0
 91
1
 92
3
 72
0
 73
1
 93
12
 10
282.45
 20
243.0
 10
282.389711431703
 20
243.225
 10
282.225
 20
243.389711431703
 10
282.0
 20
243.45
 10
281.775
 20
243.389711431703
 10
281.610288568297
 20
243.225
 10
281.55
 20
243.0
 10
281.610288568297
 20
242.775
 10
281.775
 20
242.610288568297
 10
282.0
 20
242.55
 10
282.225
 20
242.610288568297
 10
282.389711431703
 20
242.775
 97
0
 75
1
 76
1
 52
0.0
 41
1.0
 77
0
 78
1
 53
45.0
 43
0.0
 44
0.0
 45
-0.0883883476
 46
0.0883883476
 79
0
 98
0
  0
TEXT
  5
16E
330
17
100
AcDbEntity
  8
PLC
100
AcDbText
 10
287.0
 20
244.8
 30
0.0
 40
2.0
  1
Q0.1
  7
VN
 72
1
 11
287.0
 21
244.8
 31
0.0
100
AcDbText
 73
2
  0
LWPOLYLINE
  5
16F
330
17
100
AcDbEntity
  8
THIET_BI
100
AcDbPolyline
 90
4
 70
1
 10
292.0
 20
240.5
 10
302.0
 20
240.5
 10
302.0
 20
245.5
 10
292.0
 20
245.5
  0
TEXT
  5
170
330
17
100
AcDbEntity
  8
GHI_CHU
100
AcDbText
 10
297.0
 20
246.8
 30
0.0
 40
2.2
  1
K2
  7
VNB
 72
1
 11
297.0
 21
246.8
 31
0.0
100
AcDbText
 73
2
  0
LINE
  5
171
330
17
100
AcDbEntity
  8
DAY_CHINH
100
AcDbLine
 10
302.0
 20
243.0
 30
0.0
 11
306.0
 21
243.0
 31
0.0
  0
LWPOLYLINE
  5
172
330
17
100
AcDbEntity
  8
THIET_BI
100
AcDbPolyline
 90
4
 70
1
 10
306.0
 20
239.0
 10
352.0
 20
239.0
 10
352.0
 20
247.0
 10
306.0
 20
247.0
  0
TEXT
  5
173
330
17
100
AcDbEntity
  8
GHI_CHU
100
AcDbText
 10
329.0
 20
243.0
 30
0.0
 40
2.0
  1
ĐÈN BÁO SỰ CỐ (BEACON)
  7
VN
 72
1
 11
329.0
 21
243.0
 31
0.0
100
AcDbText
 73
2
  0
LINE
  5
174
330
17
100
AcDbEntity
  8
DAY_CHINH
100
AcDbLine
 10
352.0
 20
243.0
 30
0.0
 11
398.0
 21
243.0
 31
0.0
  0
HATCH
  5
175
330
17
100
AcDbEntity
  8
DAY_CHINH
 62
7
100
AcDbHatch
 10
0.0
 20
0.0
 30
0.0
210
0.0
220
0.0
230
1.0
  2
SOLID
 70
0
 71
0
 91
1
 92
3
 72
0
 73
1
 93
12
 10
398.55
 20
243.0
 10
398.4763139720814
 20
243.275
 10
398.275
 20
243.47631397208144
 10
398.0
 20
243.55
 10
397.725
 20
243.47631397208144
 10
397.5236860279186
 20
243.275
 10
397.45
 20
243.0
 10
397.5236860279186
 20
242.725
 10
397.725
 20
242.52368602791856
 10
398.0
 20
242.45
 10
398.275
 20
242.52368602791856
 10
398.4763139720814
 20
242.725
 97
0
 75
1
 76
1
 52
0.0
 41
1.0
 77
0
 78
1
 53
45.0
 43
0.0
 44
0.0
 45
-0.0883883476
 46
0.0883883476
 79
0
 98
0
  0
LINE
  5
176
330
17
100
AcDbEntity
  8
DAY_CHINH
100
AcDbLine
 10
282.0
 20
232.0
 30
0.0
 11
292.0
 21
232.0
 31
0.0
  0
HATCH
  5
177
330
17
100
AcDbEntity
  8
DAY_CHINH
 62
7
100
AcDbHatch
 10
0.0
 20
0.0
 30
0.0
210
0.0
220
0.0
230
1.0
  2
SOLID
 70
0
 71
0
 91
1
 92
3
 72
0
 73
1
 93
12
 10
282.45
 20
232.0
 10
282.389711431703
 20
232.225
 10
282.225
 20
232.389711431703
 10
282.0
 20
232.45
 10
281.775
 20
232.389711431703
 10
281.610288568297
 20
232.225
 10
281.55
 20
232.0
 10
281.610288568297
 20
231.775
 10
281.775
 20
231.610288568297
 10
282.0
 20
231.55
 10
282.225
 20
231.610288568297
 10
282.389711431703
 20
231.775
 97
0
 75
1
 76
1
 52
0.0
 41
1.0
 77
0
 78
1
 53
45.0
 43
0.0
 44
0.0
 45
-0.0883883476
 46
0.0883883476
 79
0
 98
0
  0
TEXT
  5
178
330
17
100
AcDbEntity
  8
PLC
100
AcDbText
 10
287.0
 20
233.8
 30
0.0
 40
2.0
  1
Q0.2
  7
VN
 72
1
 11
287.0
 21
233.8
 31
0.0
100
AcDbText
 73
2
  0
LWPOLYLINE
  5
179
330
17
100
AcDbEntity
  8
THIET_BI
100
AcDbPolyline
 90
4
 70
1
 10
292.0
 20
229.5
 10
302.0
 20
229.5
 10
302.0
 20
234.5
 10
292.0
 20
234.5
  0
TEXT
  5
17A
330
17
100
AcDbEntity
  8
GHI_CHU
100
AcDbText
 10
297.0
 20
235.8
 30
0.0
 40
2.2
  1
K3
  7
VNB
 72
1
 11
297.0
 21
235.8
 31
0.0
100
AcDbText
 73
2
  0
LINE
  5
17B
330
17
100
AcDbEntity
  8
DAY_CHINH
100
AcDbLine
 10
302.0
 20
232.0
 30
0.0
 11
306.0
 21
232.0
 31
0.0
  0
LWPOLYLINE
  5
17C
330
17
100
AcDbEntity
  8
THIET_BI
100
AcDbPolyline
 90
4
 70
1
 10
306.0
 20
228.0
 10
352.0
 20
228.0
 10
352.0
 20
236.0
 10
306.0
 20
236.0
  0
TEXT
  5
17D
330
17
100
AcDbEntity
  8
GHI_CHU
100
AcDbText
 10
329.0
 20
232.0
 30
0.0
 40
2.0
  1
VAN BAFFLE – MỞ
  7
VN
 72
1
 11
329.0
 21
232.0
 31
0.0
100
AcDbText
 73
2
  0
LINE
  5
17E
330
17
100
AcDbEntity
  8
DAY_CHINH
100
AcDbLine
 10
352.0
 20
232.0
 30
0.0
 11
398.0
 21
232.0
 31
0.0
  0
HATCH
  5
17F
330
17
100
AcDbEntity
  8
DAY_CHINH
 62
7
100
AcDbHatch
 10
0.0
 20
0.0
 30
0.0
210
0.0
220
0.0
230
1.0
  2
SOLID
 70
0
 71
0
 91
1
 92
3
 72
0
 73
1
 93
12
 10
398.55
 20
232.0
 10
398.4763139720814
 20
232.275
 10
398.275
 20
232.47631397208144
 10
398.0
 20
232.55
 10
397.725
 20
232.47631397208144
 10
397.5236860279186
 20
232.275
 10
397.45
 20
232.0
 10
397.5236860279186
 20
231.725
 10
397.725
 20
231.52368602791856
 10
398.0
 20
231.45
 10
398.275
 20
231.52368602791856
 10
398.4763139720814
 20
231.725
 97
0
 75
1
 76
1
 52
0.0
 41
1.0
 77
0
 78
1
 53
45.0
 43
0.0
 44
0.0
 45
-0.0883883476
 46
0.0883883476
 79
0
 98
0
  0
LINE
  5
180
330
17
100
AcDbEntity
  8
DAY_CHINH
100
AcDbLine
 10
282.0
 20
221.0
 30
0.0
 11
292.0
 21
221.0
 31
0.0
  0
HATCH
  5
181
330
17
100
AcDbEntity
  8
DAY_CHINH
 62
7
100
AcDbHatch
 10
0.0
 20
0.0
 30
0.0
210
0.0
220
0.0
230
1.0
  2
SOLID
 70
0
 71
0
 91
1
 92
3
 72
0
 73
1
 93
12
 10
282.45
 20
221.0
 10
282.389711431703
 20
221.225
 10
282.225
 20
221.389711431703
 10
282.0
 20
221.45
 10
281.775
 20
221.389711431703
 10
281.610288568297
 20
221.225
 10
281.55
 20
221.0
 10
281.610288568297
 20
220.775
 10
281.775
 20
220.610288568297
 10
282.0
 20
220.55
 10
282.225
 20
220.610288568297
 10
282.389711431703
 20
220.775
 97
0
 75
1
 76
1
 52
0.0
 41
1.0
 77
0
 78
1
 53
45.0
 43
0.0
 44
0.0
 45
-0.0883883476
 46
0.0883883476
 79
0
 98
0
  0
TEXT
  5
182
330
17
100
AcDbEntity
  8
PLC
100
AcDbText
 10
287.0
 20
222.8
 30
0.0
 40
2.0
  1
Q0.3
  7
VN
 72
1
 11
287.0
 21
222.8
 31
0.0
100
AcDbText
 73
2
  0
LWPOLYLINE
  5
183
330
17
100
AcDbEntity
  8
THIET_BI
100
AcDbPolyline
 90
4
 70
1
 10
292.0
 20
218.5
 10
302.0
 20
218.5
 10
302.0
 20
223.5
 10
292.0
 20
223.5
  0
TEXT
  5
184
330
17
100
AcDbEntity
  8
GHI_CHU
100
AcDbText
 10
297.0
 20
224.8
 30
0.0
 40
2.2
  1
K4
  7
VNB
 72
1
 11
297.0
 21
224.8
 31
0.0
100
AcDbText
 73
2
  0
LINE
  5
185
330
17
100
AcDbEntity
  8
DAY_CHINH
100
AcDbLine
 10
302.0
 20
221.0
 30
0.0
 11
306.0
 21
221.0
 31
0.0
  0
LWPOLYLINE
  5
186
330
17
100
AcDbEntity
  8
THIET_BI
100
AcDbPolyline
 90
4
 70
1
 10
306.0
 20
217.0
 10
352.0
 20
217.0
 10
352.0
 20
225.0
 10
306.0
 20
225.0
  0
TEXT
  5
187
330
17
100
AcDbEntity
  8
GHI_CHU
100
AcDbText
 10
329.0
 20
221.0
 30
0.0
 40
2.0
  1
VAN BAFFLE – ĐÓNG
  7
VN
 72
1
 11
329.0
 21
221.0
 31
0.0
100
AcDbText
 73
2
  0
LINE
  5
188
330
17
100
AcDbEntity
  8
DAY_CHINH
100
AcDbLine
 10
352.0
 20
221.0
 30
0.0
 11
398.0
 21
221.0
 31
0.0
  0
HATCH
  5
189
330
17
100
AcDbEntity
  8
DAY_CHINH
 62
7
100
AcDbHatch
 10
0.0
 20
0.0
 30
0.0
210
0.0
220
0.0
230
1.0
  2
SOLID
 70
0
 71
0
 91
1
 92
3
 72
0
 73
1
 93
12
 10
398.55
 20
221.0
 10
398.4763139720814
 20
221.275
 10
398.275
 20
221.47631397208144
 10
398.0
 20
221.55
 10
397.725
 20
221.47631397208144
 10
397.5236860279186
 20
221.275
 10
397.45
 20
221.0
 10
397.5236860279186
 20
220.725
 10
397.725
 20
220.52368602791856
 10
398.0
 20
220.45
 10
398.275
 20
220.52368602791856
 10
398.4763139720814
 20
220.725
 97
0
 75
1
 76
1
 52
0.0
 41
1.0
 77
0
 78
1
 53
45.0
 43
0.0
 44
0.0
 45
-0.0883883476
 46
0.0883883476
 79
0
 98
0
  0
LINE
  5
18A
330
17
100
AcDbEntity
  8
DAY_CHINH
100
AcDbLine
 10
282.0
 20
210.0
 30
0.0
 11
292.0
 21
210.0
 31
0.0
  0
HATCH
  5
18B
330
17
100
AcDbEntity
  8
DAY_CHINH
 62
7
100
AcDbHatch
 10
0.0
 20
0.0
 30
0.0
210
0.0
220
0.0
230
1.0
  2
SOLID
 70
0
 71
0
 91
1
 92
3
 72
0
 73
1
 93
12
 10
282.45
 20
210.0
 10
282.389711431703
 20
210.225
 10
282.225
 20
210.389711431703
 10
282.0
 20
210.45
 10
281.775
 20
210.389711431703
 10
281.610288568297
 20
210.225
 10
281.55
 20
210.0
 10
281.610288568297
 20
209.775
 10
281.775
 20
209.610288568297
 10
282.0
 20
209.55
 10
282.225
 20
209.610288568297
 10
282.389711431703
 20
209.775
 97
0
 75
1
 76
1
 52
0.0
 41
1.0
 77
0
 78
1
 53
45.0
 43
0.0
 44
0.0
 45
-0.0883883476
 46
0.0883883476
 79
0
 98
0
  0
TEXT
  5
18C
330
17
100
AcDbEntity
  8
PLC
100
AcDbText
 10
287.0
 20
211.8
 30
0.0
 40
2.0
  1
Q0.4
  7
VN
 72
1
 11
287.0
 21
211.8
 31
0.0
100
AcDbText
 73
2
  0
LWPOLYLINE
  5
18D
330
17
100
AcDbEntity
  8
THIET_BI
100
AcDbPolyline
 90
4
 70
1
 10
292.0
 20
207.5
 10
302.0
 20
207.5
 10
302.0
 20
212.5
 10
292.0
 20
212.5
  0
TEXT
  5
18E
330
17
100
AcDbEntity
  8
GHI_CHU
100
AcDbText
 10
297.0
 20
213.8
 30
0.0
 40
2.2
  1
K5
  7
VNB
 72
1
 11
297.0
 21
213.8
 31
0.0
100
AcDbText
 73
2
  0
LINE
  5
18F
330
17
100
AcDbEntity
  8
DAY_CHINH
100
AcDbLine
 10
302.0
 20
210.0
 30
0.0
 11
306.0
 21
210.0
 31
0.0
  0
LWPOLYLINE
  5
190
330
17
100
AcDbEntity
  8
THIET_BI
100
AcDbPolyline
 90
4
 70
1
 10
306.0
 20
206.0
 10
352.0
 20
206.0
 10
352.0
 20
214.0
 10
306.0
 20
214.0
  0
TEXT
  5
191
330
17
100
AcDbEntity
  8
GHI_CHU
100
AcDbText
 10
329.0
 20
210.0
 30
0.0
 40
2.0
  1
CHẠY BƠM DẦU (OIL PUMP)
  7
VN
 72
1
 11
329.0
 21
210.0
 31
0.0
100
AcDbText
 73
2
  0
LINE
  5
192
330
17
100
AcDbEntity
  8
DAY_CHINH
100
AcDbLine
 10
352.0
 20
210.0
 30
0.0
 11
398.0
 21
210.0
 31
0.0
  0
HATCH
  5
193
330
17
100
AcDbEntity
  8
DAY_CHINH
 62
7
100
AcDbHatch
 10
0.0
 20
0.0
 30
0.0
210
0.0
220
0.0
230
1.0
  2
SOLID
 70
0
 71
0
 91
1
 92
3
 72
0
 73
1
 93
12
 10
398.55
 20
210.0
 10
398.4763139720814
 20
210.275
 10
398.275
 20
210.47631397208144
 10
398.0
 20
210.55
 10
397.725
 20
210.47631397208144
 10
397.5236860279186
 20
210.275
 10
397.45
 20
210.0
 10
397.5236860279186
 20
209.725
 10
397.725
 20
209.52368602791856
 10
398.0
 20
209.45
 10
398.275
 20
209.52368602791856
 10
398.4763139720814
 20
209.725
 97
0
 75
1
 76
1
 52
0.0
 41
1.0
 77
0
 78
1
 53
45.0
 43
0.0
 44
0.0
 45
-0.0883883476
 46
0.0883883476
 79
0
 98
0
  0
LINE
  5
194
330
17
100
AcDbEntity
  8
DAY_CHINH
100
AcDbLine
 10
282.0
 20
199.0
 30
0.0
 11
292.0
 21
199.0
 31
0.0
  0
HATCH
  5
195
330
17
100
AcDbEntity
  8
DAY_CHINH
 62
7
100
AcDbHatch
 10
0.0
 20
0.0
 30
0.0
210
0.0
220
0.0
230
1.0
  2
SOLID
 70
0
 71
0
 91
1
 92
3
 72
0
 73
1
 93
12
 10
282.45
 20
199.0
 10
282.389711431703
 20
199.225
 10
282.225
 20
199.389711431703
 10
282.0
 20
199.45
 10
281.775
 20
199.389711431703
 10
281.610288568297
 20
199.225
 10
281.55
 20
199.0
 10
281.610288568297
 20
198.775
 10
281.775
 20
198.610288568297
 10
282.0
 20
198.55
 10
282.225
 20
198.610288568297
 10
282.389711431703
 20
198.775
 97
0
 75
1
 76
1
 52
0.0
 41
1.0
 77
0
 78
1
 53
45.0
 43
0.0
 44
0.0
 45
-0.0883883476
 46
0.0883883476
 79
0
 98
0
  0
TEXT
  5
196
330
17
100
AcDbEntity
  8
PLC
100
AcDbText
 10
287.0
 20
200.8
 30
0.0
 40
2.0
  1
Q0.5
  7
VN
 72
1
 11
287.0
 21
200.8
 31
0.0
100
AcDbText
 73
2
  0
LWPOLYLINE
  5
197
330
17
100
AcDbEntity
  8
THIET_BI
100
AcDbPolyline
 90
4
 70
1
 10
292.0
 20
196.5
 10
302.0
 20
196.5
 10
302.0
 20
201.5
 10
292.0
 20
201.5
  0
TEXT
  5
198
330
17
100
AcDbEntity
  8
GHI_CHU
100
AcDbText
 10
297.0
 20
202.8
 30
0.0
 40
2.2
  1
K6
  7
VNB
 72
1
 11
297.0
 21
202.8
 31
0.0
100
AcDbText
 73
2
  0
LINE
  5
199
330
17
100
AcDbEntity
  8
DAY_CHINH
100
AcDbLine
 10
302.0
 20
199.0
 30
0.0
 11
306.0
 21
199.0
 31
0.0
  0
LWPOLYLINE
  5
19A
330
17
100
AcDbEntity
  8
THIET_BI
100
AcDbPolyline
 90
4
 70
1
 10
306.0
 20
195.0
 10
352.0
 20
195.0
 10
352.0
 20
203.0
 10
306.0
 20
203.0
  0
TEXT
  5
19B
330
17
100
AcDbEntity
  8
GHI_CHU
100
AcDbText
 10
329.0
 20
199.0
 30
0.0
 40
2.0
  1
HÃM PHANH (BRAKE)
  7
VN
 72
1
 11
329.0
 21
199.0
 31
0.0
100
AcDbText
 73
2
  0
LINE
  5
19C
330
17
100
AcDbEntity
  8
DAY_CHINH
100
AcDbLine
 10
352.0
 20
199.0
 30
0.0
 11
398.0
 21
199.0
 31
0.0
  0
HATCH
  5
19D
330
17
100
AcDbEntity
  8
DAY_CHINH
 62
7
100
AcDbHatch
 10
0.0
 20
0.0
 30
0.0
210
0.0
220
0.0
230
1.0
  2
SOLID
 70
0
 71
0
 91
1
 92
3
 72
0
 73
1
 93
12
 10
398.55
 20
199.0
 10
398.4763139720814
 20
199.275
 10
398.275
 20
199.47631397208144
 10
398.0
 20
199.55
 10
397.725
 20
199.47631397208144
 10
397.5236860279186
 20
199.275
 10
397.45
 20
199.0
 10
397.5236860279186
 20
198.725
 10
397.725
 20
198.52368602791856
 10
398.0
 20
198.45
 10
398.275
 20
198.52368602791856
 10
398.4763139720814
 20
198.725
 97
0
 75
1
 76
1
 52
0.0
 41
1.0
 77
0
 78
1
 53
45.0
 43
0.0
 44
0.0
 45
-0.0883883476
 46
0.0883883476
 79
0
 98
0
  0
LINE
  5
19E
330
17
100
AcDbEntity
  8
DAY_CHINH
100
AcDbLine
 10
282.0
 20
188.0
 30
0.0
 11
292.0
 21
188.0
 31
0.0
  0
HATCH
  5
19F
330
17
100
AcDbEntity
  8
DAY_CHINH
 62
7
100
AcDbHatch
 10
0.0
 20
0.0
 30
0.0
210
0.0
220
0.0
230
1.0
  2
SOLID
 70
0
 71
0
 91
1
 92
3
 72
0
 73
1
 93
12
 10
282.45
 20
188.0
 10
282.389711431703
 20
188.225
 10
282.225
 20
188.389711431703
 10
282.0
 20
188.45
 10
281.775
 20
188.389711431703
 10
281.610288568297
 20
188.225
 10
281.55
 20
188.0
 10
281.610288568297
 20
187.775
 10
281.775
 20
187.610288568297
 10
282.0
 20
187.55
 10
282.225
 20
187.610288568297
 10
282.389711431703
 20
187.775
 97
0
 75
1
 76
1
 52
0.0
 41
1.0
 77
0
 78
1
 53
45.0
 43
0.0
 44
0.0
 45
-0.0883883476
 46
0.0883883476
 79
0
 98
0
  0
TEXT
  5
1A0
330
17
100
AcDbEntity
  8
PLC
100
AcDbText
 10
287.0
 20
189.8
 30
0.0
 40
2.0
  1
Q0.6
  7
VN
 72
1
 11
287.0
 21
189.8
 31
0.0
100
AcDbText
 73
2
  0
LWPOLYLINE
  5
1A1
330
17
100
AcDbEntity
  8
THIET_BI
100
AcDbPolyline
 90
4
 70
1
 10
292.0
 20
185.5
 10
302.0
 20
185.5
 10
302.0
 20
190.5
 10
292.0
 20
190.5
  0
TEXT
  5
1A2
330
17
100
AcDbEntity
  8
GHI_CHU
100
AcDbText
 10
297.0
 20
191.8
 30
0.0
 40
2.2
  1
K7
  7
VNB
 72
1
 11
297.0
 21
191.8
 31
0.0
100
AcDbText
 73
2
  0
LINE
  5
1A3
330
17
100
AcDbEntity
  8
DAY_CHINH
100
AcDbLine
 10
302.0
 20
188.0
 30
0.0
 11
306.0
 21
188.0
 31
0.0
  0
LWPOLYLINE
  5
1A4
330
17
100
AcDbEntity
  8
THIET_BI
100
AcDbPolyline
 90
4
 70
1
 10
306.0
 20
184.0
 10
352.0
 20
184.0
 10
352.0
 20
192.0
 10
306.0
 20
192.0
  0
TEXT
  5
1A5
330
17
100
AcDbEntity
  8
GHI_CHU
100
AcDbText
 10
329.0
 20
188.0
 30
0.0
 40
2.0
  1
DỪNG KHẨN – TRIP
  7
VN
 72
1
 11
329.0
 21
188.0
 31
0.0
100
AcDbText
 73
2
  0
LINE
  5
1A6
330
17
100
AcDbEntity
  8
DAY_CHINH
100
AcDbLine
 10
352.0
 20
188.0
 30
0.0
 11
398.0
 21
188.0
 31
0.0
  0
HATCH
  5
1A7
330
17
100
AcDbEntity
  8
DAY_CHINH
 62
7
100
AcDbHatch
 10
0.0
 20
0.0
 30
0.0
210
0.0
220
0.0
230
1.0
  2
SOLID
 70
0
 71
0
 91
1
 92
3
 72
0
 73
1
 93
12
 10
398.55
 20
188.0
 10
398.4763139720814
 20
188.275
 10
398.275
 20
188.47631397208144
 10
398.0
 20
188.55
 10
397.725
 20
188.47631397208144
 10
397.5236860279186
 20
188.275
 10
397.45
 20
188.0
 10
397.5236860279186
 20
187.725
 10
397.725
 20
187.52368602791856
 10
398.0
 20
187.45
 10
398.275
 20
187.52368602791856
 10
398.4763139720814
 20
187.725
 97
0
 75
1
 76
1
 52
0.0
 41
1.0
 77
0
 78
1
 53
45.0
 43
0.0
 44
0.0
 45
-0.0883883476
 46
0.0883883476
 79
0
 98
0
  0
LINE
  5
1A8
330
17
100
AcDbEntity
  8
ANALOG
100
AcDbLine
 10
282.0
 20
156.0
 30
0.0
 11
306.0
 21
156.0
 31
0.0
  0
HATCH
  5
1A9
330
17
100
AcDbEntity
  8
ANALOG
 62
7
100
AcDbHatch
 10
0.0
 20
0.0
 30
0.0
210
0.0
220
0.0
230
1.0
  2
SOLID
 70
0
 71
0
 91
1
 92
3
 72
0
 73
1
 93
12
 10
282.45
 20
156.0
 10
282.389711431703
 20
156.225
 10
282.225
 20
156.389711431703
 10
282.0
 20
156.45
 10
281.775
 20
156.389711431703
 10
281.610288568297
 20
156.225
 10
281.55
 20
156.0
 10
281.610288568297
 20
155.775
 10
281.775
 20
155.610288568297
 10
282.0
 20
155.55
 10
282.225
 20
155.610288568297
 10
282.389711431703
 20
155.775
 97
0
 75
1
 76
1
 52
0.0
 41
1.0
 77
0
 78
1
 53
45.0
 43
0.0
 44
0.0
 45
-0.0883883476
 46
0.0883883476
 79
0
 98
0
  0
TEXT
  5
1AA
330
17
100
AcDbEntity
  8
PLC
100
AcDbText
 10
292.0
 20
158.2
 30
0.0
 40
2.0
  1
QW80
  7
VN
 72
1
 11
292.0
 21
158.2
 31
0.0
100
AcDbText
 73
2
  0
LWPOLYLINE
  5
1AB
330
17
100
AcDbEntity
  8
ANALOG
370
35
100
AcDbPolyline
 90
4
 70
1
 10
306.0
 20
140.0
 10
380.0
 20
140.0
 10
380.0
 20
170.0
 10
306.0
 20
170.0
  0
TEXT
  5
1AC
330
17
100
AcDbEntity
  8
ANALOG
100
AcDbText
 10
343.0
 20
165.0
 30
0.0
 40
2.6
  1
BIẾN TẦN BƠM DẦU (VFD)
  7
VNB
 72
1
 11
343.0
 21
165.0
 31
0.0
100
AcDbText
 73
2
  0
TEXT
  5
1AD
330
17
100
AcDbEntity
  8
ANALOG
100
AcDbText
 10
343.0
 20
159.5
 30
0.0
 40
2.0
  1
Tham chiếu tốc độ: 0–10V ← AQ (QW80)
  7
VN
 72
1
 11
343.0
 21
159.5
 31
0.0
100
AcDbText
 73
2
  0
TEXT
  5
1AE
330
17
100
AcDbEntity
  8
ANALOG
100
AcDbText
 10
343.0
 20
154.5
 30
0.0
 40
2.0
  1
Lệnh Chạy/Dừng: Q0.4 → K5
  7
VN
 72
1
 11
343.0
 21
154.5
 31
0.0
100
AcDbText
 73
2
  0
TEXT
  5
1AF
330
17
100
AcDbEntity
  8
ANALOG
100
AcDbText
 10
343.0
 20
149.5
 30
0.0
 40
2.0
  1
Động lực: 3~ 380V – 3.7kW
  7
VN
 72
1
 11
343.0
 21
149.5
 31
0.0
100
AcDbText
 73
2
  0
TEXT
  5
1B0
330
17
100
AcDbEntity
  8
ANALOG
 62
8
100
AcDbText
 10
343.0
 20
144.5
 30
0.0
 40
2.0
  1
Báo lỗi VFD → SF1 (I0.1)
  7
VN
 72
1
 11
343.0
 21
144.5
 31
0.0
100
AcDbText
 73
2
  0
LINE
  5
1B1
330
17
100
AcDbEntity
  8
ANALOG
100
AcDbLine
 10
380.0
 20
146.0
 30
0.0
 11
398.0
 21
146.0
 31
0.0
  0
HATCH
  5
1B2
330
17
100
AcDbEntity
  8
DAY_CHINH
 62
7
100
AcDbHatch
 10
0.0
 20
0.0
 30
0.0
210
0.0
220
0.0
230
1.0
  2
SOLID
 70
0
 71
0
 91
1
 92
3
 72
0
 73
1
 93
12
 10
398.55
 20
146.0
 10
398.4763139720814
 20
146.275
 10
398.275
 20
146.47631397208144
 10
398.0
 20
146.55
 10
397.725
 20
146.47631397208144
 10
397.5236860279186
 20
146.275
 10
397.45
 20
146.0
 10
397.5236860279186
 20
145.725
 10
397.725
 20
145.52368602791856
 10
398.0
 20
145.45
 10
398.275
 20
145.52368602791856
 10
398.4763139720814
 20
145.725
 97
0
 75
1
 76
1
 52
0.0
 41
1.0
 77
0
 78
1
 53
45.0
 43
0.0
 44
0.0
 45
-0.0883883476
 46
0.0883883476
 79
0
 98
0
  0
TEXT
  5
1B3
330
17
100
AcDbEntity
  8
ANALOG
 62
8
100
AcDbText
 10
385.0
 20
148.2
 30
0.0
 40
1.8
  1
GND
  7
VN
 72
1
 11
385.0
 21
148.2
 31
0.0
100
AcDbText
 73
2
  0
LINE
  5
1B4
330
17
100
AcDbEntity
  8
ANALOG
100
AcDbLine
 10
282.0
 20
132.0
 30
0.0
 11
302.0
 21
132.0
 31
0.0
  0
HATCH
  5
1B5
330
17
100
AcDbEntity
  8
ANALOG
 62
7
100
AcDbHatch
 10
0.0
 20
0.0
 30
0.0
210
0.0
220
0.0
230
1.0
  2
SOLID
 70
0
 71
0
 91
1
 92
3
 72
0
 73
1
 93
12
 10
282.45
 20
132.0
 10
282.389711431703
 20
132.225
 10
282.225
 20
132.389711431703
 10
282.0
 20
132.45
 10
281.775
 20
132.389711431703
 10
281.610288568297
 20
132.225
 10
281.55
 20
132.0
 10
281.610288568297
 20
131.775
 10
281.775
 20
131.610288568297
 10
282.0
 20
131.55
 10
282.225
 20
131.610288568297
 10
282.389711431703
 20
131.775
 97
0
 75
1
 76
1
 52
0.0
 41
1.0
 77
0
 78
1
 53
45.0
 43
0.0
 44
0.0
 45
-0.0883883476
 46
0.0883883476
 79
0
 98
0
  0
TEXT
  5
1B6
330
17
100
AcDbEntity
  8
PLC
100
AcDbText
 10
292.0
 20
134.2
 30
0.0
 40
2.0
  1
QW82
  7
VN
 72
1
 11
292.0
 21
134.2
 31
0.0
100
AcDbText
 73
2
  0
TEXT
  5
1B7
330
17
100
AcDbEntity
  8
ANALOG
 62
8
100
AcDbText
 10
304.0
 20
132.0
 30
0.0
 40
2.0
  1
DỰ PHÒNG
  7
VN
 11
304.0
 21
132.0
 31
0.0
100
AcDbText
 73
2
  0
LINE
  5
1B8
330
17
100
AcDbEntity
  8
KHUNG
 62
8
370
18
100
AcDbLine
 10
248.0
 20
93.5
 30
0.0
 11
392.0
 21
93.5
 31
0.0
  0
TEXT
  5
1B9
330
17
100
AcDbEntity
  8
GHI_CHU
100
AcDbText
 10
250.0
 20
88.5
 30
0.0
 40
3.0
  1
GHI CHÚ / NOTES:
  7
VNB
 11
250.0
 21
88.5
 31
0.0
100
AcDbText
 73
2
  0
TEXT
  5
1BA
330
17
100
AcDbEntity
  8
GHI_CHU
100
AcDbText
 10
250.0
 20
83.0
 30
0.0
 40
2.1
  1
1. Bản vẽ hiển thị trạng thái KHÔNG KÍCH ĐỘNG (de-energized).
  7
VN
 11
250.0
 21
83.0
 31
0.0
100
AcDbText
 73
2
  0
TEXT
  5
1BB
330
17
100
AcDbEntity
  8
GHI_CHU
100
AcDbText
 10
250.0
 20
77.2
 30
0.0
 40
2.1
  1
2. Cáp DI: 2×0.75mm²; cáp analog chống nhiễu, nối đất chụp 1 đầu.
  7
VN
 11
250.0
 21
77.2
 31
0.0
100
AcDbText
 73
2
  0
TEXT
  5
1BC
330
17
100
AcDbEntity
  8
GHI_CHU
100
AcDbText
 10
250.0
 20
71.4
 30
0.0
 40
2.1
  1
3. E-STOP: mạch kép Cat.3 / PL d, bắt buộc dùng tiếp điểm NC.
  7
VN
 11
250.0
 21
71.4
 31
0.0
100
AcDbText
 73
2
  0
TEXT
  5
1BD
330
17
100
AcDbEntity
  8
GHI_CHU
100
AcDbText
 10
250.0
 20
65.6
 30
0.0
 40
2.1
  1
4. Địa chỉ I/O khớp phần cứng TIA Portal V18 – SimLogic_V18.ap18.
  7
VN
 11
250.0
 21
65.6
 31
0.0
100
AcDbText
 73
2
  0
TEXT
  5
1BE
330
17
100
AcDbEntity
  8
GHI_CHU
100
AcDbText
 10
250.0
 20
59.8
 30
0.0
 40
2.1
  1
5. Ký hiệu IEC 60617 • đi dây IEC 60204-1 • HMI: WinCC RT Adv.
  7
VN
 11
250.0
 21
59.8
 31
0.0
100
AcDbText
 73
2
  0
TEXT
  5
1BF
330
17
100
AcDbEntity
  8
GHI_CHU
100
AcDbText
 10
13.0
 20
98.0
 30
0.0
 40
3.0
  1
4. MẠCH CHỌN CHẾ ĐỘ HOA (HAND – OFF – AUTO)
  7
VNB
 11
13.0
 21
98.0
 31
0.0
100
AcDbText
 73
2
  0
TEXT
  5
1C0
330
17
100
AcDbEntity
  8
DAY_CHINH
100
AcDbText
 10
26.0
 20
92.0
 30
0.0
 40
2.4
  1
+24V
  7
VN
 72
1
 11
26.0
 21
92.0
 31
0.0
100
AcDbText
 73
2
  0
LINE
  5
1C1
330
17
100
AcDbEntity
  8
DAY_CHINH
100
AcDbLine
 10
26.0
 20
90.4
 30
0.0
 11
26.0
 21
88.4
 31
0.0
  0
HATCH
  5
1C2
330
17
100
AcDbEntity
  8
DAY_CHINH
 62
7
100
AcDbHatch
 10
0.0
 20
0.0
 30
0.0
210
0.0
220
0.0
230
1.0
  2
SOLID
 70
0
 71
0
 91
1
 92
3
 72
0
 73
1
 93
3
 10
26.0
 20
88.0
 10
27.099999999999998
 20
89.90525588832577
 10
24.9
 20
89.90525588832577
 97
0
 75
1
 76
1
 52
0.0
 41
1.0
 77
0
 78
1
 53
45.0
 43
0.0
 44
0.0
 45
-0.0883883476
 46
0.0883883476
 79
0
 98
0
  0
LINE
  5
1C3
330
17
100
AcDbEntity
  8
DAY_CHINH
100
AcDbLine
 10
26.0
 20
88.0
 30
0.0
 11
26.0
 21
62.0
 31
0.0
  0
HATCH
  5
1C4
330
17
100
AcDbEntity
  8
DAY_CHINH
 62
7
100
AcDbHatch
 10
0.0
 20
0.0
 30
0.0
210
0.0
220
0.0
230
1.0
  2
SOLID
 70
0
 71
0
 91
1
 92
3
 72
0
 73
1
 93
12
 10
26.5
 20
84.0
 10
26.43301270189222
 20
84.25
 10
26.25
 20
84.43301270189222
 10
26.0
 20
84.5
 10
25.75
 20
84.43301270189222
 10
25.56698729810778
 20
84.25
 10
25.5
 20
84.0
 10
25.56698729810778
 20
83.75
 10
25.75
 20
83.56698729810778
 10
26.0
 20
83.5
 10
26.25
 20
83.56698729810778
 10
26.43301270189222
 20
83.75
 97
0
 75
1
 76
1
 52
0.0
 41
1.0
 77
0
 78
1
 53
45.0
 43
0.0
 44
0.0
 45
-0.0883883476
 46
0.0883883476
 79
0
 98
0
  0
TEXT
  5
1C5
330
17
100
AcDbEntity
  8
GHI_CHU
100
AcDbText
 10
24.0
 20
84.0
 30
0.0
 40
2.1
  1
TAY
  7
VN
 72
2
 11
24.0
 21
84.0
 31
0.0
100
AcDbText
 73
2
  0
HATCH
  5
1C6
330
17
100
AcDbEntity
  8
DAY_CHINH
 62
7
100
AcDbHatch
 10
0.0
 20
0.0
 30
0.0
210
0.0
220
0.0
230
1.0
  2
SOLID
 70
0
 71
0
 91
1
 92
3
 72
0
 73
1
 93
12
 10
26.5
 20
74.0
 10
26.43301270189222
 20
74.25
 10
26.25
 20
74.43301270189222
 10
26.0
 20
74.5
 10
25.75
 20
74.43301270189222
 10
25.56698729810778
 20
74.25
 10
25.5
 20
74.0
 10
25.56698729810778
 20
73.75
 10
25.75
 20
73.56698729810778
 10
26.0
 20
73.5
 10
26.25
 20
73.56698729810778
 10
26.43301270189222
 20
73.75
 97
0
 75
1
 76
1
 52
0.0
 41
1.0
 77
0
 78
1
 53
45.0
 43
0.0
 44
0.0
 45
-0.0883883476
 46
0.0883883476
 79
0
 98
0
  0
TEXT
  5
1C7
330
17
100
AcDbEntity
  8
GHI_CHU
100
AcDbText
 10
24.0
 20
74.0
 30
0.0
 40
2.1
  1
0
  7
VN
 72
2
 11
24.0
 21
74.0
 31
0.0
100
AcDbText
 73
2
  0
HATCH
  5
1C8
330
17
100
AcDbEntity
  8
DAY_CHINH
 62
7
100
AcDbHatch
 10
0.0
 20
0.0
 30
0.0
210
0.0
220
0.0
230
1.0
  2
SOLID
 70
0
 71
0
 91
1
 92
3
 72
0
 73
1
 93
12
 10
26.5
 20
64.0
 10
26.43301270189222
 20
64.25
 10
26.25
 20
64.43301270189222
 10
26.0
 20
64.5
 10
25.75
 20
64.43301270189222
 10
25.56698729810778
 20
64.25
 10
25.5
 20
64.0
 10
25.56698729810778
 20
63.75
 10
25.75
 20
63.56698729810778
 10
26.0
 20
63.5
 10
26.25
 20
63.56698729810778
 10
26.43301270189222
 20
63.75
 97
0
 75
1
 76
1
 52
0.0
 41
1.0
 77
0
 78
1
 53
45.0
 43
0.0
 44
0.0
 45
-0.0883883476
 46
0.0883883476
 79
0
 98
0
  0
TEXT
  5
1C9
330
17
100
AcDbEntity
  8
GHI_CHU
100
AcDbText
 10
24.0
 20
64.0
 30
0.0
 40
2.1
  1
TỰ ĐỘNG
  7
VN
 72
2
 11
24.0
 21
64.0
 31
0.0
100
AcDbText
 73
2
  0
LINE
  5
1CA
330
17
100
AcDbEntity
  8
DAY_CHINH
370
35
100
AcDbLine
 10
26.0
 20
74.0
 30
0.0
 11
30.5
 21
78.5
 31
0.0
  0
TEXT
  5
1CB
330
17
100
AcDbEntity
  8
GHI_CHU
100
AcDbText
 10
17.0
 20
74.0
 30
0.0
 40
2.0
  1
SA1
  7
VNB
 72
2
 11
17.0
 21
74.0
 31
0.0
100
AcDbText
 73
2
  0
LINE
  5
1CC
330
17
100
AcDbEntity
  8
DAY_CHINH
100
AcDbLine
 10
26.0
 20
84.0
 30
0.0
 11
42.0
 21
84.0
 31
0.0
  0
LINE
  5
1CD
330
17
100
AcDbEntity
  8
DAY_CHINH
100
AcDbLine
 10
26.0
 20
64.0
 30
0.0
 11
42.0
 21
64.0
 31
0.0
  0
LINE
  5
1CE
330
17
100
AcDbEntity
  8
DAY_CHINH
100
AcDbLine
 10
42.0
 20
84.0
 30
0.0
 11
42.0
 21
64.0
 31
0.0
  0
LINE
  5
1CF
330
17
100
AcDbEntity
  8
DAY_CHINH
100
AcDbLine
 10
42.0
 20
74.0
 30
0.0
 11
50.0
 21
74.0
 31
0.0
  0
LWPOLYLINE
  5
1D0
330
17
100
AcDbEntity
  8
THIET_BI
100
AcDbPolyline
 90
4
 70
1
 10
50.0
 20
71.5
 10
60.0
 20
71.5
 10
60.0
 20
76.5
 10
50.0
 20
76.5
  0
TEXT
  5
1D1
330
17
100
AcDbEntity
  8
GHI_CHU
100
AcDbText
 10
55.0
 20
78.2
 30
0.0
 40
2.2
  1
KA1
  7
VNB
 72
1
 11
55.0
 21
78.2
 31
0.0
100
AcDbText
 73
2
  0
LINE
  5
1D2
330
17
100
AcDbEntity
  8
DAY_CHINH
100
AcDbLine
 10
60.0
 20
74.0
 30
0.0
 11
68.0
 21
74.0
 31
0.0
  0
HATCH
  5
1D3
330
17
100
AcDbEntity
  8
DAY_CHINH
 62
7
100
AcDbHatch
 10
0.0
 20
0.0
 30
0.0
210
0.0
220
0.0
230
1.0
  2
SOLID
 70
0
 71
0
 91
1
 92
3
 72
0
 73
1
 93
12
 10
68.5
 20
74.0
 10
68.43301270189222
 20
74.25
 10
68.25
 20
74.43301270189222
 10
68.0
 20
74.5
 10
67.75
 20
74.43301270189222
 10
67.56698729810778
 20
74.25
 10
67.5
 20
74.0
 10
67.56698729810778
 20
73.75
 10
67.75
 20
73.56698729810778
 10
68.0
 20
73.5
 10
68.25
 20
73.56698729810778
 10
68.43301270189222
 20
73.75
 97
0
 75
1
 76
1
 52
0.0
 41
1.0
 77
0
 78
1
 53
45.0
 43
0.0
 44
0.0
 45
-0.0883883476
 46
0.0883883476
 79
0
 98
0
  0
TEXT
  5
1D4
330
17
100
AcDbEntity
  8
GHI_CHU
100
AcDbText
 10
13.0
 20
53.5
 30
0.0
 40
2.1
  1
TAY: vận hành qua nút nhấn/núm vặn tại tủ.   TỰ ĐỘNG: PLC điều khiển theo chương trình.
  7
VN
 11
13.0
 21
53.5
 31
0.0
100
AcDbText
 73
2
  0
TEXT
  5
1D5
330
17
100
AcDbEntity
  8
GHI_CHU
100
AcDbText
 10
13.0
 20
49.0
 30
0.0
 40
2.1
  1
KA1: rêle chọn chế độ TAY. Tiếp điểm K5 cấp lệnh Run cho biến tần bơm dầu.
  7
VN
 11
13.0
 21
49.0
 31
0.0
100
AcDbText
 73
2
  0
TEXT
  5
1D6
330
17
100
AcDbEntity
  8
GHI_CHU
100
AcDbText
 10
13.0
 20
40.0
 30
0.0
 40
2.4
  1
CHÚ THÍCH MÀU LỚP (LAYER):
  7
VNB
 11
13.0
 21
40.0
 31
0.0
100
AcDbText
 73
2
  0
LINE
  5
1D7
330
17
100
AcDbEntity
  8
DAY_CHINH
 62
7
370
60
100
AcDbLine
 10
13.0
 20
34.0
 30
0.0
 11
21.0
 21
34.0
 31
0.0
  0
TEXT
  5
1D8
330
17
100
AcDbEntity
  8
GHI_CHU
100
AcDbText
 10
23.0
 20
34.0
 30
0.0
 40
2.0
  1
Dây điện / khung
  7
VN
 11
23.0
 21
34.0
 31
0.0
100
AcDbText
 73
2
  0
LINE
  5
1D9
330
17
100
AcDbEntity
  8
DAY_CHINH
 62
2
370
60
100
AcDbLine
 10
78.0
 20
34.0
 30
0.0
 11
86.0
 21
34.0
 31
0.0
  0
TEXT
  5
1DA
330
17
100
AcDbEntity
  8
GHI_CHU
100
AcDbText
 10
88.0
 20
34.0
 30
0.0
 40
2.0
  1
PLC
  7
VN
 11
88.0
 21
34.0
 31
0.0
100
AcDbText
 73
2
  0
LINE
  5
1DB
330
17
100
AcDbEntity
  8
DAY_CHINH
 62
3
370
60
100
AcDbLine
 10
110.0
 20
34.0
 30
0.0
 11
118.0
 21
34.0
 31
0.0
  0
TEXT
  5
1DC
330
17
100
AcDbEntity
  8
GHI_CHU
100
AcDbText
 10
120.0
 20
34.0
 30
0.0
 40
2.0
  1
Thiết bị
  7
VN
 11
120.0
 21
34.0
 31
0.0
100
AcDbText
 73
2
  0
LINE
  5
1DD
330
17
100
AcDbEntity
  8
DAY_CHINH
 62
4
370
60
100
AcDbLine
 10
165.0
 20
34.0
 30
0.0
 11
173.0
 21
34.0
 31
0.0
  0
TEXT
  5
1DE
330
17
100
AcDbEntity
  8
GHI_CHU
100
AcDbText
 10
175.0
 20
34.0
 30
0.0
 40
2.0
  1
Analog
  7
VN
 11
175.0
 21
34.0
 31
0.0
100
AcDbText
 73
2
  0
LINE
  5
1DF
330
17
100
AcDbEntity
  8
DAY_CHINH
 62
1
370
60
100
AcDbLine
 10
13.0
 20
29.0
 30
0.0
 11
21.0
 21
29.0
 31
0.0
  0
TEXT
  5
1E0
330
17
100
AcDbEntity
  8
GHI_CHU
100
AcDbText
 10
23.0
 20
29.0
 30
0.0
 40
2.0
  1
An toàn (E-STOP)
  7
VN
 11
23.0
 21
29.0
 31
0.0
100
AcDbText
 73
2
  0
LINE
  5
1E1
330
17
100
AcDbEntity
  8
DAY_CHINH
 62
6
370
60
100
AcDbLine
 10
78.0
 20
29.0
 30
0.0
 11
86.0
 21
29.0
 31
0.0
  0
TEXT
  5
1E2
330
17
100
AcDbEntity
  8
GHI_CHU
100
AcDbText
 10
88.0
 20
29.0
 30
0.0
 40
2.0
  1
Tụ/bus (SLD)
  7
VN
 11
88.0
 21
29.0
 31
0.0
100
AcDbText
 73
2
  0
LINE
  5
1E3
330
17
100
AcDbEntity
  8
DAY_CHINH
 62
8
370
60
100
AcDbLine
 10
110.0
 20
29.0
 30
0.0
 11
118.0
 21
29.0
 31
0.0
  0
TEXT
  5
1E4
330
17
100
AcDbEntity
  8
GHI_CHU
 62
8
100
AcDbText
 10
120.0
 20
29.0
 30
0.0
 40
2.0
  1
Ghi chú phụ
  7
VN
 11
120.0
 21
29.0
 31
0.0
100
AcDbText
 73
2
  0
ENDSEC
  0
SECTION
  2
OBJECTS
  0
DICTIONARY
  5
A
330
0
100
AcDbDictionary
281
1
  3
ACAD_COLOR
350
B
  3
ACAD_GROUP
350
C
  3
ACAD_LAYOUT
350
D
  3
ACAD_MATERIAL
350
E
  3
ACAD_MLEADERSTYLE
350
F
  3
ACAD_MLINESTYLE
350
10
  3
ACAD_PLOTSETTINGS
350
11
  3
ACAD_PLOTSTYLENAME
350
12
  3
ACAD_SCALELIST
350
14
  3
ACAD_TABLESTYLE
350
15
  3
ACAD_VISUALSTYLE
350
16
  3
EZDXF_META
350
2D
  0
DICTIONARY
  5
B
330
A
100
AcDbDictionary
281
1
  0
DICTIONARY
  5
C
330
A
100
AcDbDictionary
281
1
  0
DICTIONARY
  5
D
330
A
100
AcDbDictionary
281
1
  3
Model
350
1A
  3
Layout1
350
1E
  0
DICTIONARY
  5
E
330
A
100
AcDbDictionary
281
1
  3
ByBlock
350
1F
  3
ByLayer
350
20
  3
Global
350
21
  0
DICTIONARY
  5
F
330
A
100
AcDbDictionary
281
1
  3
Standard
350
2C
  0
DICTIONARY
  5
10
330
A
100
AcDbDictionary
281
1
  3
Standard
350
22
  0
DICTIONARY
  5
11
330
A
100
AcDbDictionary
281
1
  0
ACDBDICTIONARYWDFLT
  5
12
330
A
100
AcDbDictionary
281
1
  3
Normal
350
13
100
AcDbDictionaryWithDefault
340
13
  0
ACDBPLACEHOLDER
  5
13
330
12
  0
DICTIONARY
  5
14
330
A
100
AcDbDictionary
281
1
  0
DICTIONARY
  5
15
330
A
100
AcDbDictionary
281
1
  0
DICTIONARY
  5
16
330
A
100
AcDbDictionary
281
1
  3
2dWireframe
350
5A
  3
Basic
350
5B
  3
Brighten
350
5C
  3
ColorChange
350
5D
  3
Conceptual
350
5E
  3
Dim
350
5F
  3
EdgeColorOff
350
60
  3
Facepattern
350
61
  3
Flat
350
62
  3
FlatWithEdges
350
63
  3
Gouraud
350
64
  3
GouraudWithEdges
350
65
  3
Hidden
350
66
  3
JitterOff
350
67
  3
Linepattern
350
68
  3
Modeling
350
69
  3
OverhangOff
350
6A
  3
Realistic
350
6B
  3
Shaded
350
6C
  3
Shaded with edges
350
6D
  3
Shades of Gray
350
6E
  3
Sketchy
350
6F
  3
Thicken
350
70
  3
Wireframe
350
71
  3
X-Ray
350
72
  0
LAYOUT
  5
1A
330
D
100
AcDbPlotSettings
  1

  4
A3
  6

 40
7.5
 41
20.0
 42
7.5
 43
20.0
 44
420.0
 45
297.0
 46
0.0
 47
0.0
 48
0.0
 49
0.0
140
0.0
141
0.0
142
1.0
143
1.0
 70
1024
 72
1
 73
0
 74
5
  7

 75
16
 76
0
 77
2
 78
300
147
1.0
148
0.0
149
0.0
100
AcDbLayout
  1
Model
 70
1
 71
0
 10
0.0
 20
0.0
 11
420.0
 21
297.0
 12
0.0
 22
0.0
 32
0.0
 14
1e+20
 24
1e+20
 34
1e+20
 15
-1e+20
 25
-1e+20
 35
-1e+20
146
0.0
 13
0.0
 23
0.0
 33
0.0
 16
1.0
 26
0.0
 36
0.0
 17
0.0
 27
1.0
 37
0.0
 76
1
330
17
  0
LAYOUT
  5
1E
330
D
100
AcDbPlotSettings
  1

  4
A3
  6

 40
7.5
 41
20.0
 42
7.5
 43
20.0
 44
420.0
 45
297.0
 46
0.0
 47
0.0
 48
0.0
 49
0.0
140
0.0
141
0.0
142
1.0
143
1.0
 70
0
 72
1
 73
0
 74
5
  7

 75
16
 76
0
 77
2
 78
300
147
1.0
148
0.0
149
0.0
100
AcDbLayout
  1
Layout1
 70
1
 71
1
 10
0.0
 20
0.0
 11
420.0
 21
297.0
 12
0.0
 22
0.0
 32
0.0
 14
1e+20
 24
1e+20
 34
1e+20
 15
-1e+20
 25
-1e+20
 35
-1e+20
146
0.0
 13
0.0
 23
0.0
 33
0.0
 16
1.0
 26
0.0
 36
0.0
 17
0.0
 27
1.0
 37
0.0
 76
1
330
1B
  0
MATERIAL
  5
1F
102
{ACAD_REACTORS
330
E
102
}
330
E
100
AcDbMaterial
  1
ByBlock
  2

 70
0
 40
1.0
 71
1
 41
1.0
 91
-1023410177
 42
1.0
 72
1
  3

 73
1
 74
1
 75
1
 44
0.5
 73
0
 45
1.0
 46
1.0
 77
1
  4

 78
1
 79
1
170
1
 48
1.0
171
1
  6

172
1
173
1
174
1
140
1.0
141
1.0
175
1
  7

176
1
177
1
178
1
143
1.0
179
1
  8

270
1
271
1
272
1
145
1.0
146
1.0
273
1
  9

274
1
275
1
276
1
 42
1.0
 72
1
  3

 73
1
 74
1
 75
1
 94
63
  0
MATERIAL
  5
20
102
{ACAD_REACTORS
330
E
102
}
330
E
100
AcDbMaterial
  1
ByLayer
  2

 70
0
 40
1.0
 71
1
 41
1.0
 91
-1023410177
 42
1.0
 72
1
  3

 73
1
 74
1
 75
1
 44
0.5
 73
0
 45
1.0
 46
1.0
 77
1
  4

 78
1
 79
1
170
1
 48
1.0
171
1
  6

172
1
173
1
174
1
140
1.0
141
1.0
175
1
  7

176
1
177
1
178
1
143
1.0
179
1
  8

270
1
271
1
272
1
145
1.0
146
1.0
273
1
  9

274
1
275
1
276
1
 42
1.0
 72
1
  3

 73
1
 74
1
 75
1
 94
63
  0
MATERIAL
  5
21
102
{ACAD_REACTORS
330
E
102
}
330
E
100
AcDbMaterial
  1
Global
  2

 70
0
 40
1.0
 71
1
 41
1.0
 91
-1023410177
 42
1.0
 72
1
  3

 73
1
 74
1
 75
1
 44
0.5
 73
0
 45
1.0
 46
1.0
 77
1
  4

 78
1
 79
1
170
1
 48
1.0
171
1
  6

172
1
173
1
174
1
140
1.0
141
1.0
175
1
  7

176
1
177
1
178
1
143
1.0
179
1
  8

270
1
271
1
272
1
145
1.0
146
1.0
273
1
  9

274
1
275
1
276
1
 42
1.0
 72
1
  3

 73
1
 74
1
 75
1
 94
63
  0
MLINESTYLE
  5
22
102
{ACAD_REACTORS
330
10
102
}
330
10
100
AcDbMlineStyle
  2
Standard
 70
0
  3

 62
256
 51
90.0
 52
90.0
 71
2
 49
0.5
 62
256
  6
BYLAYER
 49
-0.5
 62
256
  6
BYLAYER
  0
MLEADERSTYLE
  5
2C
102
{ACAD_REACTORS
330
F
102
}
330
F
100
AcDbMLeaderStyle
179
2
170
2
171
1
172
0
 90
2
 40
0.0
 41
0.0
173
1
 91
-1056964608
 92
-2
290
1
 42
2.0
291
1
 43
8.0
  3
Standard
 44
4.0
300

342
29
174
1
175
1
176
0
178
1
 93
-1056964608
 45
4.0
292
0
297
0
 46
4.0
 94
-1056964608
 47
1.0
 49
1.0
140
1.0
294
1
141
0.0
177
0
142
1.0
295
0
296
0
143
3.75
271
0
272
9
273
9
  0
DICTIONARY
  5
2D
330
A
100
AcDbDictionary
280
1
281
1
  3
CREATED_BY_EZDXF
350
2E
  3
WRITTEN_BY_EZDXF
350
1E7
  0
DICTIONARYVAR
  5
2E
330
2D
100
DictionaryVariables
280
0
  1
1.4.4 @ 2026-09-05T16:24:04.812008+00:00
  0
VISUALSTYLE
  5
5A
102
{ACAD_REACTORS
330
16
102
}
330
16
100
AcDbVisualStyle
  2
2dWireframe
 70
4
 90
0
 40
0.6
 62
7
290
0
291
0
  0
VISUALSTYLE
  5
5B
102
{ACAD_REACTORS
330
16
102
}
330
16
100
AcDbVisualStyle
  2
Basic
 70
7
 90
1
 40
0.6
 62
7
290
0
291
1
  0
VISUALSTYLE
  5
5C
102
{ACAD_REACTORS
330
16
102
}
330
16
100
AcDbVisualStyle
  2
Brighten
 70
12
 90
2
 40
0.6
 62
7
290
0
291
1
  0
VISUALSTYLE
  5
5D
102
{ACAD_REACTORS
330
16
102
}
330
16
100
AcDbVisualStyle
  2
ColorChange
 70
16
 90
2
 40
0.6
 62
8
290
0
291
1
  0
VISUALSTYLE
  5
5E
102
{ACAD_REACTORS
330
16
102
}
330
16
100
AcDbVisualStyle
  2
Conceptual
 70
9
 90
3
 40
0.6
 62
7
290
0
291
0
  0
VISUALSTYLE
  5
5F
102
{ACAD_REACTORS
330
16
102
}
330
16
100
AcDbVisualStyle
  2
Dim
 70
11
 90
2
 40
0.6
 62
7
290
0
291
1
  0
VISUALSTYLE
  5
60
102
{ACAD_REACTORS
330
16
102
}
330
16
100
AcDbVisualStyle
  2
EdgeColorOff
 70
22
 90
2
 40
0.6
 62
7
290
0
291
1
  0
VISUALSTYLE
  5
61
102
{ACAD_REACTORS
330
16
102
}
330
16
100
AcDbVisualStyle
  2
Facepattern
 70
15
 90
2
 40
0.6
 62
7
290
0
291
1
  0
VISUALSTYLE
  5
62
102
{ACAD_REACTORS
330
16
102
}
330
16
100
AcDbVisualStyle
  2
Flat
 70
0
 90
2
 40
0.6
 62
7
290
0
291
1
  0
VISUALSTYLE
  5
63
102
{ACAD_REACTORS
330
16
102
}
330
16
100
AcDbVisualStyle
  2
FlatWithEdges
 70
1
 90
2
 40
0.6
 62
7
290
0
291
1
  0
VISUALSTYLE
  5
64
102
{ACAD_REACTORS
330
16
102
}
330
16
100
AcDbVisualStyle
  2
Gouraud
 70
2
 90
2
 40
0.6
 62
7
290
0
291
1
  0
VISUALSTYLE
  5
65
102
{ACAD_REACTORS
330
16
102
}
330
16
100
AcDbVisualStyle
  2
GouraudWithEdges
 70
3
 90
2
 40
0.6
 62
7
290
0
291
1
  0
VISUALSTYLE
  5
66
102
{ACAD_REACTORS
330
16
102
}
330
16
100
AcDbVisualStyle
  2
Hidden
 70
6
 90
1
 40
0.6
 62
7
290
0
291
0
  0
VISUALSTYLE
  5
67
102
{ACAD_REACTORS
330
16
102
}
330
16
100
AcDbVisualStyle
  2
JitterOff
 70
20
 90
2
 40
0.6
 62
7
290
0
291
1
  0
VISUALSTYLE
  5
68
102
{ACAD_REACTORS
330
16
102
}
330
16
100
AcDbVisualStyle
  2
Linepattern
 70
14
 90
2
 40
0.6
 62
7
290
0
291
1
  0
VISUALSTYLE
  5
69
102
{ACAD_REACTORS
330
16
102
}
330
16
100
AcDbVisualStyle
  2
Modeling
 70
10
 90
2
 40
0.6
 62
7
290
0
291
0
  0
VISUALSTYLE
  5
6A
102
{ACAD_REACTORS
330
16
102
}
330
16
100
AcDbVisualStyle
  2
OverhangOff
 70
21
 90
2
 40
0.6
 62
7
290
0
291
1
  0
VISUALSTYLE
  5
6B
102
{ACAD_REACTORS
330
16
102
}
330
16
100
AcDbVisualStyle
  2
Realistic
 70
8
 90
2
 40
0.6
 62
7
290
0
291
0
  0
VISUALSTYLE
  5
6C
102
{ACAD_REACTORS
330
16
102
}
330
16
100
AcDbVisualStyle
  2
Shaded
 70
27
 90
2
 40
0.6
 62
7
290
0
291
0
  0
VISUALSTYLE
  5
6D
102
{ACAD_REACTORS
330
16
102
}
330
16
100
AcDbVisualStyle
  2
Shaded with edges
 70
26
 90
2
 40
0.6
 62
7
290
0
291
0
  0
VISUALSTYLE
  5
6E
102
{ACAD_REACTORS
330
16
102
}
330
16
100
AcDbVisualStyle
  2
Shades of Gray
 70
23
 90
2
 40
0.6
 62
7
290
0
291
0
  0
VISUALSTYLE
  5
6F
102
{ACAD_REACTORS
330
16
102
}
330
16
100
AcDbVisualStyle
  2
Sketchy
 70
24
 90
1
 40
0.6
 62
7
290
0
291
0
  0
VISUALSTYLE
  5
70
102
{ACAD_REACTORS
330
16
102
}
330
16
100
AcDbVisualStyle
  2
Thicken
 70
13
 90
2
 40
0.6
 62
7
290
0
291
1
  0
VISUALSTYLE
  5
71
102
{ACAD_REACTORS
330
16
102
}
330
16
100
AcDbVisualStyle
  2
Wireframe
 70
5
 90
0
 40
0.6
 62
7
290
0
291
0
  0
VISUALSTYLE
  5
72
102
{ACAD_REACTORS
330
16
102
}
330
16
100
AcDbVisualStyle
  2
X-Ray
 70
25
 90
2
 40
0.5
 62
7
290
0
291
0
  0
DICTIONARYVAR
  5
1E7
330
2D
100
DictionaryVariables
280
0
  1
1.4.4 @ 2026-09-05T16:24:04.823254+00:00
  0
ENDSEC
  0
EOF
